M48
; DRILL file {KiCad 7.0.6} date Tue Jul 23 19:19:10 2024
; FORMAT={-:-/ absolute / metric / decimal}
; #@! TF.CreationDate,2024-07-23T19:19:10+03:00
; #@! TF.GenerationSoftware,Kicad,Pcbnew,7.0.6
; #@! TF.FileFunction,Plated,1,2,PTH
FMAT,2
METRIC
; #@! TA.AperFunction,Plated,PTH,ViaDrill
T1C0.300
; #@! TA.AperFunction,Plated,PTH,ViaDrill
T2C0.400
; #@! TA.AperFunction,Plated,PTH,ComponentDrill
T3C1.000
; #@! TA.AperFunction,Plated,PTH,ComponentDrill
T4C2.200
%
G90
G05
T1
X139.328Y-103.712
X139.328Y-105.148
X140.245Y-90.943
X142.873Y-92.666
X143.341Y-105.671
X145.101Y-81.831
X145.266Y-92.009
X145.562Y-101.315
X146.371Y-81.831
X147.625Y-81.831
X148.057Y-92.009
X148.895Y-81.831
X150.165Y-81.831
X150.851Y-92.006
X151.435Y-81.831
X152.705Y-81.831
X153.645Y-92.006
X153.975Y-81.831
X154.229Y-101.752
X155.194Y-101.143
X156.87Y-92.009
X158.22Y-92.949
X165.332Y-96.48
X168.634Y-87.895
X169.244Y-85.939
X169.574Y-101.23
X169.63Y-89.699
X172.648Y-98.232
X172.698Y-92.721
X173.714Y-87.183
T2
X126.928Y-83.394
X126.928Y-86.842
X126.928Y-90.291
X126.928Y-93.74
X126.928Y-97.191
X126.928Y-100.595
X126.928Y-103.541
X126.928Y-106.259
T3
X120.387Y-86.589
X120.387Y-89.129
X120.387Y-91.669
X120.387Y-94.209
X120.387Y-96.749
X120.387Y-99.289
X120.387Y-101.829
X120.387Y-104.369
T4
X120.374Y-77.684
X120.374Y-113.244
X177.524Y-77.684
X177.524Y-113.244
T0
M30
