%TF.GenerationSoftware,KiCad,Pcbnew,7.0.6*%
%TF.CreationDate,2024-07-23T19:19:19+03:00*%
%TF.ProjectId,bus_input_card,6275735f-696e-4707-9574-5f636172642e,rev?*%
%TF.SameCoordinates,Original*%
%TF.FileFunction,Copper,L2,Bot*%
%TF.FilePolarity,Positive*%
%FSLAX46Y46*%
G04 Gerber Fmt 4.6, Leading zero omitted, Abs format (unit mm)*
G04 Created by KiCad (PCBNEW 7.0.6) date 2024-07-23 19:19:19*
%MOMM*%
%LPD*%
G01*
G04 APERTURE LIST*
%TA.AperFunction,ComponentPad*%
%ADD10R,1.700000X1.700000*%
%TD*%
%TA.AperFunction,ComponentPad*%
%ADD11O,1.700000X1.700000*%
%TD*%
%TA.AperFunction,ComponentPad*%
%ADD12C,3.800000*%
%TD*%
%TA.AperFunction,ViaPad*%
%ADD13C,0.800000*%
%TD*%
%TA.AperFunction,ViaPad*%
%ADD14C,0.700000*%
%TD*%
%TA.AperFunction,Conductor*%
%ADD15C,0.500000*%
%TD*%
%TA.AperFunction,Conductor*%
%ADD16C,0.300000*%
%TD*%
G04 APERTURE END LIST*
D10*
%TO.P,J2,1,Pin_1*%
%TO.N,Net-(D9-A)*%
X120387374Y-86588875D03*
D11*
%TO.P,J2,2,Pin_2*%
%TO.N,Net-(D8-A)*%
X120387374Y-89128875D03*
%TO.P,J2,3,Pin_3*%
%TO.N,Net-(D7-A)*%
X120387374Y-91668875D03*
%TO.P,J2,4,Pin_4*%
%TO.N,Net-(D6-A)*%
X120387374Y-94208875D03*
%TO.P,J2,5,Pin_5*%
%TO.N,Net-(D5-A)*%
X120387374Y-96748875D03*
%TO.P,J2,6,Pin_6*%
%TO.N,Net-(D4-A)*%
X120387374Y-99288875D03*
%TO.P,J2,7,Pin_7*%
%TO.N,Net-(D3-A)*%
X120387374Y-101828875D03*
%TO.P,J2,8,Pin_8*%
%TO.N,Net-(D2-A)*%
X120387374Y-104368875D03*
%TD*%
D12*
%TO.P,H2,1,1*%
%TO.N,GND*%
X120374451Y-113243875D03*
%TD*%
%TO.P,H1,1,1*%
%TO.N,GND*%
X120374451Y-77683875D03*
%TD*%
%TO.P,H4,1,1*%
%TO.N,GND*%
X177524451Y-113243875D03*
%TD*%
%TO.P,H3,1,1*%
%TO.N,GND*%
X177524451Y-77683875D03*
%TD*%
D13*
%TO.N,GND*%
X126927651Y-83393875D03*
D14*
X143340802Y-105670870D03*
D13*
X126927651Y-97191075D03*
D14*
X165332451Y-96479875D03*
X146371351Y-81830500D03*
X172698451Y-92720675D03*
D13*
X126927651Y-86842446D03*
X126927651Y-93739588D03*
X126927651Y-100594675D03*
X126927651Y-90291017D03*
D14*
X173714451Y-87183475D03*
X148894800Y-81830500D03*
X155194000Y-101142800D03*
X169574251Y-101229675D03*
X152704800Y-81830500D03*
D13*
X126927651Y-103541075D03*
X126927651Y-106258875D03*
D14*
X151434800Y-81830500D03*
X168634451Y-87894675D03*
X145561963Y-101315163D03*
X169244051Y-85938875D03*
X147624800Y-81830500D03*
X169629900Y-89699480D03*
X172647651Y-98232475D03*
X150164800Y-81830500D03*
X153974800Y-81830500D03*
X154228800Y-101752400D03*
X145101351Y-81830500D03*
%TO.N,VCC*%
X148056600Y-92009475D03*
X158220451Y-92949275D03*
X142872761Y-92665707D03*
X140245100Y-90942675D03*
X145266451Y-92009475D03*
X156870400Y-92009475D03*
X150850600Y-92005624D03*
X153644600Y-92005624D03*
%TO.N,Net-(D2-A)*%
X139328419Y-105148113D03*
X139328419Y-103712037D03*
%TD*%
D15*
%TO.N,VCC*%
X156870400Y-92009475D02*
X157280651Y-92009475D01*
X157280651Y-92009475D02*
X158220451Y-92949275D01*
X143528993Y-92009475D02*
X142872761Y-92665707D01*
X147425451Y-92009475D02*
X145266451Y-92009475D01*
X145266451Y-92009475D02*
X143528993Y-92009475D01*
X147425451Y-92009475D02*
X156870400Y-92009475D01*
X148035051Y-92009475D02*
X147425451Y-92009475D01*
X141968132Y-92665707D02*
X142872761Y-92665707D01*
X140245100Y-90942675D02*
X141968132Y-92665707D01*
D16*
%TO.N,Net-(D2-A)*%
X139327972Y-103712037D02*
X139327972Y-105147666D01*
%TD*%
%TA.AperFunction,Conductor*%
%TO.N,GND*%
G36*
X177596048Y-74513203D02*
G01*
X177599090Y-74513285D01*
X177650852Y-74515997D01*
X177705448Y-74519073D01*
X177861147Y-74527848D01*
X177867350Y-74528513D01*
X178018752Y-74552490D01*
X178201121Y-74583474D01*
X178206759Y-74584706D01*
X178362325Y-74626388D01*
X178532985Y-74675552D01*
X178538028Y-74677243D01*
X178691515Y-74736158D01*
X178852950Y-74803024D01*
X178857348Y-74805052D01*
X179005461Y-74880516D01*
X179157228Y-74964393D01*
X179160979Y-74966644D01*
X179301318Y-75057779D01*
X179442257Y-75157778D01*
X179445357Y-75160129D01*
X179574784Y-75264934D01*
X179577052Y-75266864D01*
X179704694Y-75380929D01*
X179707221Y-75383319D01*
X179825038Y-75501132D01*
X179827417Y-75503649D01*
X179941479Y-75631281D01*
X179943423Y-75633565D01*
X180048210Y-75762966D01*
X180050592Y-75766106D01*
X180150579Y-75907020D01*
X180241711Y-76047348D01*
X180243978Y-76051126D01*
X180327853Y-76202882D01*
X180403311Y-76350975D01*
X180405350Y-76355397D01*
X180472218Y-76516826D01*
X180531131Y-76670298D01*
X180532826Y-76675354D01*
X180581991Y-76846002D01*
X180623676Y-77001567D01*
X180624913Y-77007230D01*
X180655897Y-77189572D01*
X180679872Y-77340938D01*
X180680538Y-77347164D01*
X180693071Y-77570287D01*
X180698866Y-77680841D01*
X180698951Y-77684087D01*
X180698951Y-113242252D01*
X180698866Y-113245497D01*
X180691835Y-113379663D01*
X180680621Y-113579624D01*
X180679955Y-113585855D01*
X180654468Y-113746774D01*
X180625123Y-113919495D01*
X180623885Y-113925160D01*
X180580579Y-114086785D01*
X180533174Y-114251327D01*
X180531479Y-114256383D01*
X180470818Y-114414413D01*
X180405865Y-114571224D01*
X180403827Y-114575647D01*
X180326477Y-114727456D01*
X180244680Y-114875454D01*
X180242413Y-114879232D01*
X180149238Y-115022707D01*
X180051518Y-115160430D01*
X180049135Y-115163571D01*
X179942109Y-115295737D01*
X179940156Y-115298033D01*
X179828634Y-115422826D01*
X179826244Y-115425354D01*
X179705946Y-115545651D01*
X179703418Y-115548041D01*
X179578588Y-115659595D01*
X179576292Y-115661549D01*
X179444160Y-115768546D01*
X179441019Y-115770928D01*
X179303281Y-115868657D01*
X179159794Y-115961835D01*
X179156016Y-115964102D01*
X179008039Y-116045885D01*
X178856233Y-116123232D01*
X178851811Y-116125270D01*
X178694984Y-116190230D01*
X178536964Y-116250886D01*
X178531906Y-116252582D01*
X178367342Y-116299990D01*
X178205740Y-116343289D01*
X178200075Y-116344526D01*
X178027287Y-116373882D01*
X177866425Y-116399357D01*
X177860198Y-116400023D01*
X177664068Y-116411036D01*
X177525610Y-116418290D01*
X177522366Y-116418375D01*
X120376076Y-116418375D01*
X120372830Y-116418290D01*
X120233288Y-116410974D01*
X120039173Y-116400110D01*
X120032935Y-116399443D01*
X119867163Y-116373186D01*
X119699347Y-116344669D01*
X119693683Y-116343432D01*
X119528969Y-116299294D01*
X119428117Y-116270238D01*
X119367548Y-116252787D01*
X119362509Y-116251097D01*
X119306399Y-116229558D01*
X119202157Y-116189541D01*
X119047684Y-116125553D01*
X119043261Y-116123515D01*
X118889575Y-116045206D01*
X118743481Y-115964460D01*
X118739724Y-115962205D01*
X118638613Y-115896541D01*
X118594631Y-115867978D01*
X118458539Y-115771413D01*
X118455398Y-115769030D01*
X118321836Y-115660870D01*
X118319540Y-115658917D01*
X118196172Y-115548667D01*
X118193645Y-115546277D01*
X118072075Y-115424705D01*
X118069685Y-115422177D01*
X117959426Y-115298793D01*
X117957473Y-115296498D01*
X117849325Y-115162945D01*
X117846951Y-115159815D01*
X117801364Y-115095564D01*
X117750373Y-115023697D01*
X117719225Y-114975733D01*
X117656138Y-114878585D01*
X117653910Y-114874870D01*
X117573156Y-114728753D01*
X117572495Y-114727456D01*
X117494843Y-114575052D01*
X117492824Y-114570672D01*
X117428840Y-114416199D01*
X117367274Y-114255810D01*
X117365589Y-114250784D01*
X117319098Y-114089407D01*
X117274949Y-113924635D01*
X117273716Y-113918993D01*
X117245201Y-113751164D01*
X117218940Y-113585350D01*
X117218276Y-113579134D01*
X117208041Y-113396862D01*
X117200036Y-113244076D01*
X117200031Y-113243880D01*
X117969706Y-113243880D01*
X117988666Y-113545258D01*
X117988667Y-113545265D01*
X118045256Y-113841915D01*
X118138576Y-114129122D01*
X118138578Y-114129127D01*
X118267155Y-114402366D01*
X118267158Y-114402372D01*
X118428964Y-114657339D01*
X118509763Y-114755008D01*
X119438662Y-113826110D01*
X119539345Y-113967499D01*
X119691383Y-114112467D01*
X119793673Y-114178204D01*
X118861015Y-115110861D01*
X119085925Y-115274268D01*
X119085936Y-115274275D01*
X119350560Y-115419753D01*
X119350568Y-115419757D01*
X119631340Y-115530922D01*
X119631343Y-115530923D01*
X119923850Y-115606025D01*
X120223446Y-115643874D01*
X120223458Y-115643875D01*
X120525444Y-115643875D01*
X120525455Y-115643874D01*
X120825051Y-115606025D01*
X121117558Y-115530923D01*
X121117561Y-115530922D01*
X121398333Y-115419757D01*
X121398341Y-115419753D01*
X121662965Y-115274275D01*
X121662976Y-115274268D01*
X121887884Y-115110861D01*
X121887885Y-115110861D01*
X120957757Y-114180734D01*
X120971861Y-114173464D01*
X121136991Y-114043604D01*
X121274561Y-113884840D01*
X121309116Y-113824987D01*
X122239137Y-114755008D01*
X122319934Y-114657344D01*
X122481743Y-114402372D01*
X122481746Y-114402366D01*
X122610323Y-114129127D01*
X122610325Y-114129122D01*
X122703645Y-113841915D01*
X122760234Y-113545265D01*
X122760235Y-113545258D01*
X122779196Y-113243880D01*
X175119706Y-113243880D01*
X175138666Y-113545258D01*
X175138667Y-113545265D01*
X175195256Y-113841915D01*
X175288576Y-114129122D01*
X175288578Y-114129127D01*
X175417155Y-114402366D01*
X175417158Y-114402372D01*
X175578964Y-114657339D01*
X175659763Y-114755008D01*
X176588662Y-113826110D01*
X176689345Y-113967499D01*
X176841383Y-114112467D01*
X176943673Y-114178204D01*
X176011015Y-115110861D01*
X176235925Y-115274268D01*
X176235936Y-115274275D01*
X176500560Y-115419753D01*
X176500568Y-115419757D01*
X176781340Y-115530922D01*
X176781343Y-115530923D01*
X177073850Y-115606025D01*
X177373446Y-115643874D01*
X177373458Y-115643875D01*
X177675444Y-115643875D01*
X177675455Y-115643874D01*
X177975051Y-115606025D01*
X178267558Y-115530923D01*
X178267561Y-115530922D01*
X178548333Y-115419757D01*
X178548341Y-115419753D01*
X178812965Y-115274275D01*
X178812976Y-115274268D01*
X179037884Y-115110861D01*
X179037885Y-115110861D01*
X178107757Y-114180734D01*
X178121861Y-114173464D01*
X178286991Y-114043604D01*
X178424561Y-113884840D01*
X178459116Y-113824987D01*
X179389137Y-114755008D01*
X179469934Y-114657344D01*
X179631743Y-114402372D01*
X179631746Y-114402366D01*
X179760323Y-114129127D01*
X179760325Y-114129122D01*
X179853645Y-113841915D01*
X179910234Y-113545265D01*
X179910235Y-113545258D01*
X179929196Y-113243880D01*
X179929196Y-113243869D01*
X179910235Y-112942491D01*
X179910234Y-112942484D01*
X179853645Y-112645834D01*
X179760325Y-112358627D01*
X179760323Y-112358622D01*
X179631746Y-112085383D01*
X179631743Y-112085377D01*
X179469937Y-111830410D01*
X179389136Y-111732739D01*
X178460238Y-112661637D01*
X178359557Y-112520251D01*
X178207519Y-112375283D01*
X178105228Y-112309544D01*
X179037885Y-111376887D01*
X178812981Y-111213484D01*
X178812971Y-111213477D01*
X178548341Y-111067996D01*
X178548333Y-111067992D01*
X178267561Y-110956827D01*
X178267558Y-110956826D01*
X177975051Y-110881724D01*
X177675455Y-110843875D01*
X177373446Y-110843875D01*
X177073850Y-110881724D01*
X176781343Y-110956826D01*
X176781340Y-110956827D01*
X176500568Y-111067992D01*
X176500560Y-111067996D01*
X176235930Y-111213477D01*
X176235912Y-111213489D01*
X176011016Y-111376885D01*
X176011015Y-111376887D01*
X176941144Y-112307015D01*
X176927041Y-112314286D01*
X176761911Y-112444146D01*
X176624341Y-112602910D01*
X176589785Y-112662761D01*
X175659763Y-111732739D01*
X175578967Y-111830405D01*
X175417158Y-112085377D01*
X175417155Y-112085383D01*
X175288578Y-112358622D01*
X175288576Y-112358627D01*
X175195256Y-112645834D01*
X175138667Y-112942484D01*
X175138666Y-112942491D01*
X175119706Y-113243869D01*
X175119706Y-113243880D01*
X122779196Y-113243880D01*
X122779196Y-113243869D01*
X122760235Y-112942491D01*
X122760234Y-112942484D01*
X122703645Y-112645834D01*
X122610325Y-112358627D01*
X122610323Y-112358622D01*
X122481746Y-112085383D01*
X122481743Y-112085377D01*
X122319937Y-111830410D01*
X122239136Y-111732739D01*
X121310238Y-112661638D01*
X121209557Y-112520251D01*
X121057519Y-112375283D01*
X120955228Y-112309544D01*
X121887885Y-111376887D01*
X121662981Y-111213484D01*
X121662971Y-111213477D01*
X121398341Y-111067996D01*
X121398333Y-111067992D01*
X121117561Y-110956827D01*
X121117558Y-110956826D01*
X120825051Y-110881724D01*
X120525455Y-110843875D01*
X120223446Y-110843875D01*
X119923850Y-110881724D01*
X119631343Y-110956826D01*
X119631340Y-110956827D01*
X119350568Y-111067992D01*
X119350560Y-111067996D01*
X119085930Y-111213477D01*
X119085912Y-111213489D01*
X118861016Y-111376885D01*
X118861015Y-111376887D01*
X119791144Y-112307015D01*
X119777041Y-112314286D01*
X119611911Y-112444146D01*
X119474341Y-112602910D01*
X119439785Y-112662761D01*
X118509763Y-111732739D01*
X118428967Y-111830405D01*
X118267158Y-112085377D01*
X118267155Y-112085383D01*
X118138578Y-112358622D01*
X118138576Y-112358627D01*
X118045256Y-112645834D01*
X117988667Y-112942484D01*
X117988666Y-112942491D01*
X117969706Y-113243869D01*
X117969706Y-113243880D01*
X117200031Y-113243880D01*
X117199951Y-113240832D01*
X117199951Y-108095480D01*
X145578744Y-108095480D01*
X145620034Y-108263003D01*
X145620035Y-108263006D01*
X145620036Y-108263007D01*
X145700220Y-108415784D01*
X145814635Y-108544933D01*
X145956630Y-108642945D01*
X145956631Y-108642945D01*
X145956633Y-108642947D01*
X146117960Y-108704130D01*
X146117961Y-108704131D01*
X146246265Y-108719710D01*
X146246269Y-108719710D01*
X146332223Y-108719710D01*
X146434865Y-108707246D01*
X146460527Y-108704131D01*
X146621855Y-108642947D01*
X146763853Y-108544933D01*
X146878268Y-108415784D01*
X146958452Y-108263007D01*
X146999744Y-108095480D01*
X152378744Y-108095480D01*
X152420034Y-108263003D01*
X152420035Y-108263006D01*
X152420036Y-108263007D01*
X152500220Y-108415784D01*
X152614635Y-108544933D01*
X152756630Y-108642945D01*
X152756631Y-108642945D01*
X152756633Y-108642947D01*
X152917960Y-108704130D01*
X152917961Y-108704131D01*
X153046265Y-108719710D01*
X153046269Y-108719710D01*
X153132223Y-108719710D01*
X153234865Y-108707246D01*
X153260527Y-108704131D01*
X153421855Y-108642947D01*
X153563853Y-108544933D01*
X153678268Y-108415784D01*
X153758452Y-108263007D01*
X153799744Y-108095480D01*
X153799744Y-107922940D01*
X153758452Y-107755413D01*
X153678268Y-107602636D01*
X153563853Y-107473487D01*
X153421856Y-107375474D01*
X153421858Y-107375474D01*
X153260526Y-107314288D01*
X153132223Y-107298710D01*
X153132219Y-107298710D01*
X153046269Y-107298710D01*
X153046265Y-107298710D01*
X152917961Y-107314288D01*
X152756630Y-107375474D01*
X152614636Y-107473486D01*
X152500220Y-107602635D01*
X152420034Y-107755416D01*
X152378744Y-107922939D01*
X152378744Y-108095480D01*
X146999744Y-108095480D01*
X146999744Y-107922940D01*
X146958452Y-107755413D01*
X146878268Y-107602636D01*
X146763853Y-107473487D01*
X146621856Y-107375474D01*
X146621858Y-107375474D01*
X146460526Y-107314288D01*
X146332223Y-107298710D01*
X146332219Y-107298710D01*
X146246269Y-107298710D01*
X146246265Y-107298710D01*
X146117961Y-107314288D01*
X145956630Y-107375474D01*
X145814636Y-107473486D01*
X145700220Y-107602635D01*
X145620034Y-107755416D01*
X145578744Y-107922939D01*
X145578744Y-108095480D01*
X117199951Y-108095480D01*
X117199951Y-104368875D01*
X119231945Y-104368875D01*
X119251618Y-104581185D01*
X119309970Y-104786267D01*
X119309970Y-104786269D01*
X119405006Y-104977128D01*
X119405008Y-104977130D01*
X119533502Y-105147282D01*
X119691072Y-105290927D01*
X119872355Y-105403173D01*
X120071176Y-105480196D01*
X120280764Y-105519375D01*
X120280766Y-105519375D01*
X120493982Y-105519375D01*
X120493984Y-105519375D01*
X120703572Y-105480196D01*
X120902393Y-105403173D01*
X121083676Y-105290927D01*
X121240334Y-105148113D01*
X138673141Y-105148113D01*
X138692181Y-105304931D01*
X138729440Y-105403173D01*
X138748199Y-105452636D01*
X138837936Y-105582643D01*
X138956179Y-105687396D01*
X138956181Y-105687397D01*
X139096053Y-105760809D01*
X139249433Y-105798613D01*
X139249434Y-105798613D01*
X139407404Y-105798613D01*
X139560784Y-105760809D01*
X139700659Y-105687396D01*
X139818902Y-105582643D01*
X139908639Y-105452636D01*
X139964656Y-105304931D01*
X139983697Y-105148113D01*
X139964656Y-104991295D01*
X139908639Y-104843590D01*
X139818902Y-104713583D01*
X139818898Y-104713579D01*
X139813928Y-104707969D01*
X139815244Y-104706802D01*
X139783117Y-104655578D01*
X139778472Y-104621957D01*
X139778472Y-104238192D01*
X139798157Y-104171153D01*
X139814204Y-104152427D01*
X139813928Y-104152182D01*
X139818900Y-104146569D01*
X139818900Y-104146568D01*
X139818902Y-104146567D01*
X139908639Y-104016560D01*
X139964656Y-103868855D01*
X139983697Y-103712037D01*
X139964656Y-103555219D01*
X139908639Y-103407514D01*
X139818902Y-103277507D01*
X139700659Y-103172754D01*
X139700657Y-103172753D01*
X139700656Y-103172752D01*
X139560784Y-103099340D01*
X139407405Y-103061537D01*
X139407404Y-103061537D01*
X139249434Y-103061537D01*
X139249433Y-103061537D01*
X139096053Y-103099340D01*
X138956181Y-103172752D01*
X138837935Y-103277508D01*
X138748200Y-103407512D01*
X138748199Y-103407513D01*
X138692181Y-103555218D01*
X138673141Y-103712036D01*
X138673141Y-103712037D01*
X138692181Y-103868855D01*
X138748199Y-104016560D01*
X138748200Y-104016561D01*
X138837937Y-104146569D01*
X138842910Y-104152182D01*
X138841335Y-104153576D01*
X138872821Y-104203759D01*
X138877472Y-104237400D01*
X138877472Y-104622749D01*
X138857787Y-104689788D01*
X138842511Y-104707616D01*
X138842910Y-104707969D01*
X138837934Y-104713585D01*
X138748200Y-104843588D01*
X138748199Y-104843589D01*
X138692181Y-104991294D01*
X138673141Y-105148112D01*
X138673141Y-105148113D01*
X121240334Y-105148113D01*
X121241246Y-105147282D01*
X121369740Y-104977130D01*
X121369741Y-104977128D01*
X121464777Y-104786269D01*
X121464777Y-104786268D01*
X121464779Y-104786264D01*
X121523130Y-104581185D01*
X121542803Y-104368875D01*
X121523130Y-104156565D01*
X121464779Y-103951486D01*
X121464777Y-103951481D01*
X121464777Y-103951480D01*
X121369741Y-103760621D01*
X121241246Y-103590468D01*
X121202579Y-103555218D01*
X121083676Y-103446823D01*
X120902393Y-103334577D01*
X120902391Y-103334576D01*
X120802982Y-103296065D01*
X120703572Y-103257554D01*
X120506759Y-103220763D01*
X120444480Y-103189096D01*
X120409207Y-103128783D01*
X120412141Y-103058975D01*
X120452350Y-103001835D01*
X120506758Y-102976986D01*
X120703572Y-102940196D01*
X120902393Y-102863173D01*
X121083676Y-102750927D01*
X121241246Y-102607282D01*
X121369740Y-102437130D01*
X121464779Y-102246264D01*
X121523130Y-102041185D01*
X121542803Y-101828875D01*
X121523130Y-101616565D01*
X121464779Y-101411486D01*
X121464777Y-101411481D01*
X121464777Y-101411480D01*
X121369741Y-101220621D01*
X121241246Y-101050468D01*
X121083676Y-100906823D01*
X120902393Y-100794577D01*
X120902391Y-100794576D01*
X120802982Y-100756065D01*
X120703572Y-100717554D01*
X120506759Y-100680763D01*
X120444480Y-100649096D01*
X120409207Y-100588783D01*
X120412141Y-100518975D01*
X120452350Y-100461835D01*
X120506758Y-100436986D01*
X120703572Y-100400196D01*
X120902393Y-100323173D01*
X121083676Y-100210927D01*
X121241246Y-100067282D01*
X121369740Y-99897130D01*
X121464779Y-99706264D01*
X121523130Y-99501185D01*
X121542803Y-99288875D01*
X121523130Y-99076565D01*
X121464779Y-98871486D01*
X121464777Y-98871481D01*
X121464777Y-98871480D01*
X121369741Y-98680621D01*
X121241246Y-98510468D01*
X121241245Y-98510468D01*
X121083676Y-98366823D01*
X120902393Y-98254577D01*
X120902391Y-98254576D01*
X120802982Y-98216065D01*
X120703572Y-98177554D01*
X120506759Y-98140763D01*
X120444480Y-98109096D01*
X120409207Y-98048783D01*
X120412141Y-97978975D01*
X120452350Y-97921835D01*
X120506758Y-97896986D01*
X120703572Y-97860196D01*
X120902393Y-97783173D01*
X121083676Y-97670927D01*
X121241246Y-97527282D01*
X121369740Y-97357130D01*
X121464779Y-97166264D01*
X121523130Y-96961185D01*
X121542803Y-96748875D01*
X121523130Y-96536565D01*
X121464779Y-96331486D01*
X121464777Y-96331481D01*
X121464777Y-96331480D01*
X121369741Y-96140621D01*
X121241246Y-95970468D01*
X121241245Y-95970467D01*
X121083676Y-95826823D01*
X120902393Y-95714577D01*
X120902391Y-95714576D01*
X120802982Y-95676065D01*
X120703572Y-95637554D01*
X120506759Y-95600763D01*
X120444480Y-95569096D01*
X120409207Y-95508783D01*
X120412141Y-95438975D01*
X120452350Y-95381835D01*
X120506758Y-95356986D01*
X120703572Y-95320196D01*
X120902393Y-95243173D01*
X121083676Y-95130927D01*
X121241246Y-94987282D01*
X121369740Y-94817130D01*
X121464779Y-94626264D01*
X121523130Y-94421185D01*
X121542803Y-94208875D01*
X121523130Y-93996565D01*
X121464779Y-93791486D01*
X121464777Y-93791481D01*
X121464777Y-93791480D01*
X121369741Y-93600621D01*
X121241246Y-93430468D01*
X121115908Y-93316207D01*
X121083676Y-93286823D01*
X120902393Y-93174577D01*
X120902391Y-93174576D01*
X120729434Y-93107573D01*
X120703572Y-93097554D01*
X120506759Y-93060763D01*
X120444480Y-93029096D01*
X120409207Y-92968783D01*
X120412141Y-92898975D01*
X120452350Y-92841835D01*
X120506758Y-92816986D01*
X120703572Y-92780196D01*
X120902393Y-92703173D01*
X121083676Y-92590927D01*
X121241246Y-92447282D01*
X121369740Y-92277130D01*
X121369741Y-92277128D01*
X121464777Y-92086269D01*
X121464777Y-92086268D01*
X121464779Y-92086264D01*
X121523130Y-91881185D01*
X121542803Y-91668875D01*
X121523130Y-91456565D01*
X121464779Y-91251486D01*
X121464777Y-91251481D01*
X121464777Y-91251480D01*
X121369741Y-91060621D01*
X121280671Y-90942675D01*
X139589822Y-90942675D01*
X139608862Y-91099493D01*
X139664880Y-91247197D01*
X139664880Y-91247198D01*
X139754617Y-91377205D01*
X139872860Y-91481958D01*
X140012735Y-91555371D01*
X140067469Y-91568861D01*
X140125477Y-91601577D01*
X141572211Y-93048310D01*
X141617452Y-93096751D01*
X141635249Y-93107573D01*
X141655272Y-93119749D01*
X141660511Y-93123314D01*
X141695790Y-93150068D01*
X141712485Y-93156651D01*
X141731422Y-93166058D01*
X141746750Y-93175379D01*
X141789379Y-93187323D01*
X141795395Y-93189346D01*
X141836568Y-93205583D01*
X141854419Y-93207418D01*
X141875184Y-93211364D01*
X141892467Y-93216207D01*
X141936726Y-93216207D01*
X141943067Y-93216531D01*
X141987104Y-93221059D01*
X142004787Y-93218010D01*
X142025856Y-93216207D01*
X142491330Y-93216207D01*
X142548955Y-93230410D01*
X142640396Y-93278403D01*
X142717085Y-93297304D01*
X142793775Y-93316207D01*
X142793776Y-93316207D01*
X142951746Y-93316207D01*
X143105126Y-93278403D01*
X143152006Y-93253798D01*
X143245001Y-93204990D01*
X143363244Y-93100237D01*
X143452981Y-92970230D01*
X143508438Y-92824001D01*
X143536696Y-92780295D01*
X143720698Y-92596293D01*
X143782021Y-92562809D01*
X143808379Y-92559975D01*
X144885020Y-92559975D01*
X144942645Y-92574178D01*
X145034086Y-92622171D01*
X145092316Y-92636523D01*
X145187465Y-92659975D01*
X145187466Y-92659975D01*
X145345436Y-92659975D01*
X145498816Y-92622171D01*
X145590256Y-92574178D01*
X145647882Y-92559975D01*
X147349786Y-92559975D01*
X147675169Y-92559975D01*
X147732794Y-92574178D01*
X147824235Y-92622171D01*
X147882465Y-92636523D01*
X147977614Y-92659975D01*
X147977615Y-92659975D01*
X148135585Y-92659975D01*
X148288965Y-92622171D01*
X148380405Y-92574178D01*
X148438031Y-92559975D01*
X150476506Y-92559975D01*
X150534132Y-92574179D01*
X150618235Y-92618320D01*
X150692089Y-92636523D01*
X150771614Y-92656124D01*
X150771615Y-92656124D01*
X150929585Y-92656124D01*
X151082965Y-92618320D01*
X151167067Y-92574179D01*
X151224694Y-92559975D01*
X153270506Y-92559975D01*
X153328132Y-92574179D01*
X153412235Y-92618320D01*
X153486089Y-92636523D01*
X153565614Y-92656124D01*
X153565615Y-92656124D01*
X153723585Y-92656124D01*
X153876965Y-92618320D01*
X153961067Y-92574179D01*
X154018694Y-92559975D01*
X156488969Y-92559975D01*
X156546594Y-92574178D01*
X156638035Y-92622171D01*
X156696265Y-92636523D01*
X156791414Y-92659975D01*
X156791415Y-92659975D01*
X156949385Y-92659975D01*
X157044535Y-92636523D01*
X157114336Y-92639592D01*
X157161890Y-92669239D01*
X157556514Y-93063863D01*
X157584775Y-93107573D01*
X157622641Y-93207417D01*
X157640231Y-93253798D01*
X157729968Y-93383805D01*
X157848211Y-93488558D01*
X157848213Y-93488559D01*
X157988085Y-93561971D01*
X158141465Y-93599775D01*
X158141466Y-93599775D01*
X158299436Y-93599775D01*
X158452816Y-93561971D01*
X158452816Y-93561970D01*
X158592691Y-93488558D01*
X158710934Y-93383805D01*
X158800671Y-93253798D01*
X158856688Y-93106093D01*
X158875729Y-92949275D01*
X158863512Y-92848654D01*
X158856688Y-92792456D01*
X158822827Y-92703172D01*
X158800671Y-92644752D01*
X158710934Y-92514745D01*
X158592691Y-92409992D01*
X158592689Y-92409991D01*
X158592688Y-92409990D01*
X158452818Y-92336579D01*
X158398077Y-92323087D01*
X158340072Y-92290371D01*
X157676557Y-91626856D01*
X157676556Y-91626856D01*
X157631331Y-91578431D01*
X157612049Y-91566705D01*
X157593512Y-91555432D01*
X157588261Y-91551858D01*
X157552992Y-91525113D01*
X157552993Y-91525113D01*
X157536293Y-91518527D01*
X157517367Y-91509127D01*
X157502031Y-91499802D01*
X157459409Y-91487859D01*
X157453391Y-91485835D01*
X157412216Y-91469599D01*
X157412207Y-91469597D01*
X157394367Y-91467763D01*
X157373602Y-91463817D01*
X157356320Y-91458975D01*
X157356316Y-91458975D01*
X157312057Y-91458975D01*
X157305715Y-91458650D01*
X157278078Y-91455808D01*
X157261680Y-91454123D01*
X157261679Y-91454123D01*
X157261678Y-91454123D01*
X157253201Y-91454413D01*
X157253117Y-91451967D01*
X157196317Y-91445402D01*
X157187057Y-91441019D01*
X157102765Y-91396778D01*
X156949386Y-91358975D01*
X156949385Y-91358975D01*
X156791415Y-91358975D01*
X156791414Y-91358975D01*
X156638036Y-91396778D01*
X156592163Y-91420854D01*
X156546594Y-91444771D01*
X156488969Y-91458975D01*
X154033368Y-91458975D01*
X153975742Y-91444771D01*
X153876965Y-91392928D01*
X153876964Y-91392927D01*
X153876963Y-91392927D01*
X153723586Y-91355124D01*
X153723585Y-91355124D01*
X153565615Y-91355124D01*
X153565614Y-91355124D01*
X153412236Y-91392927D01*
X153364774Y-91417837D01*
X153313457Y-91444771D01*
X153255832Y-91458975D01*
X151239368Y-91458975D01*
X151181742Y-91444771D01*
X151082965Y-91392928D01*
X151082964Y-91392927D01*
X151082963Y-91392927D01*
X150929586Y-91355124D01*
X150929585Y-91355124D01*
X150771615Y-91355124D01*
X150771614Y-91355124D01*
X150618236Y-91392927D01*
X150570774Y-91417837D01*
X150519457Y-91444771D01*
X150461832Y-91458975D01*
X148438031Y-91458975D01*
X148380405Y-91444771D01*
X148288965Y-91396779D01*
X148288964Y-91396778D01*
X148288963Y-91396778D01*
X148135586Y-91358975D01*
X148135585Y-91358975D01*
X147977615Y-91358975D01*
X147977614Y-91358975D01*
X147824236Y-91396778D01*
X147778363Y-91420854D01*
X147732794Y-91444771D01*
X147675169Y-91458975D01*
X145647882Y-91458975D01*
X145590256Y-91444771D01*
X145498816Y-91396779D01*
X145498815Y-91396778D01*
X145498814Y-91396778D01*
X145345437Y-91358975D01*
X145345436Y-91358975D01*
X145187466Y-91358975D01*
X145187465Y-91358975D01*
X145034087Y-91396778D01*
X144988214Y-91420854D01*
X144942645Y-91444771D01*
X144885020Y-91458975D01*
X143538390Y-91458975D01*
X143472167Y-91456713D01*
X143472166Y-91456713D01*
X143472164Y-91456713D01*
X143429163Y-91467192D01*
X143422923Y-91468377D01*
X143379072Y-91474405D01*
X143362609Y-91481556D01*
X143342568Y-91488295D01*
X143325143Y-91492541D01*
X143325138Y-91492543D01*
X143286560Y-91514233D01*
X143280874Y-91517057D01*
X143240272Y-91534695D01*
X143226350Y-91546021D01*
X143208876Y-91557913D01*
X143193239Y-91566705D01*
X143193232Y-91566710D01*
X143161932Y-91598010D01*
X143157218Y-91602264D01*
X143122884Y-91630197D01*
X143112534Y-91644860D01*
X143098913Y-91661029D01*
X142753138Y-92006803D01*
X142695133Y-92039518D01*
X142640399Y-92053009D01*
X142597048Y-92075761D01*
X142548955Y-92101003D01*
X142491330Y-92115207D01*
X142247518Y-92115207D01*
X142180479Y-92095522D01*
X142159837Y-92078888D01*
X141539599Y-91458650D01*
X140909037Y-90828087D01*
X140880776Y-90784377D01*
X140863167Y-90737949D01*
X140825320Y-90638152D01*
X140735583Y-90508145D01*
X140617340Y-90403392D01*
X140617338Y-90403391D01*
X140617337Y-90403390D01*
X140477465Y-90329978D01*
X140324086Y-90292175D01*
X140324085Y-90292175D01*
X140166115Y-90292175D01*
X140166114Y-90292175D01*
X140012734Y-90329978D01*
X139872862Y-90403390D01*
X139754616Y-90508146D01*
X139664881Y-90638150D01*
X139664880Y-90638151D01*
X139608862Y-90785856D01*
X139589822Y-90942674D01*
X139589822Y-90942675D01*
X121280671Y-90942675D01*
X121241246Y-90890468D01*
X121241245Y-90890467D01*
X121083676Y-90746823D01*
X120902393Y-90634577D01*
X120902391Y-90634576D01*
X120802982Y-90596065D01*
X120703572Y-90557554D01*
X120506759Y-90520763D01*
X120444480Y-90489096D01*
X120409207Y-90428783D01*
X120412141Y-90358975D01*
X120452350Y-90301835D01*
X120506758Y-90276986D01*
X120703572Y-90240196D01*
X120902393Y-90163173D01*
X121083676Y-90050927D01*
X121241246Y-89907282D01*
X121369740Y-89737130D01*
X121464779Y-89546264D01*
X121523130Y-89341185D01*
X121542803Y-89128875D01*
X121523130Y-88916565D01*
X121464779Y-88711486D01*
X121464777Y-88711481D01*
X121464777Y-88711480D01*
X121369741Y-88520621D01*
X121241246Y-88350468D01*
X121241245Y-88350467D01*
X121083676Y-88206823D01*
X120902393Y-88094577D01*
X120902391Y-88094576D01*
X120802982Y-88056065D01*
X120703572Y-88017554D01*
X120530830Y-87985262D01*
X120468550Y-87953594D01*
X120433277Y-87893282D01*
X120436211Y-87823474D01*
X120476420Y-87766334D01*
X120541138Y-87740003D01*
X120553607Y-87739374D01*
X121282238Y-87739374D01*
X121282253Y-87739372D01*
X121282256Y-87739372D01*
X121307361Y-87736461D01*
X121307362Y-87736460D01*
X121307365Y-87736460D01*
X121410139Y-87691081D01*
X121489580Y-87611640D01*
X121534959Y-87508866D01*
X121537874Y-87483740D01*
X121537873Y-85694011D01*
X121537871Y-85693992D01*
X121534960Y-85668887D01*
X121534959Y-85668885D01*
X121534959Y-85668884D01*
X121489580Y-85566110D01*
X121410139Y-85486669D01*
X121410138Y-85486668D01*
X121307366Y-85441290D01*
X121282239Y-85438375D01*
X119492517Y-85438375D01*
X119492491Y-85438377D01*
X119467386Y-85441288D01*
X119467382Y-85441290D01*
X119364609Y-85486668D01*
X119285168Y-85566109D01*
X119239789Y-85668881D01*
X119239789Y-85668883D01*
X119236874Y-85694006D01*
X119236874Y-87483731D01*
X119236876Y-87483757D01*
X119239787Y-87508862D01*
X119239789Y-87508866D01*
X119285167Y-87611639D01*
X119285168Y-87611639D01*
X119285168Y-87611640D01*
X119364609Y-87691081D01*
X119467383Y-87736460D01*
X119492509Y-87739375D01*
X120221132Y-87739374D01*
X120288169Y-87759058D01*
X120333924Y-87811862D01*
X120343868Y-87881021D01*
X120314843Y-87944577D01*
X120256065Y-87982351D01*
X120243916Y-87985263D01*
X120187490Y-87995810D01*
X120071176Y-88017554D01*
X120071174Y-88017554D01*
X120071172Y-88017555D01*
X119872356Y-88094576D01*
X119872354Y-88094577D01*
X119691073Y-88206822D01*
X119533501Y-88350468D01*
X119405006Y-88520621D01*
X119309970Y-88711480D01*
X119309970Y-88711482D01*
X119251618Y-88916564D01*
X119231945Y-89128874D01*
X119231945Y-89128875D01*
X119251618Y-89341185D01*
X119309970Y-89546267D01*
X119309970Y-89546269D01*
X119405006Y-89737128D01*
X119405008Y-89737130D01*
X119533502Y-89907282D01*
X119691072Y-90050927D01*
X119872355Y-90163173D01*
X120071176Y-90240196D01*
X120267987Y-90276986D01*
X120330267Y-90308654D01*
X120365540Y-90368967D01*
X120362606Y-90438775D01*
X120322397Y-90495915D01*
X120267987Y-90520763D01*
X120071176Y-90557554D01*
X120071173Y-90557554D01*
X120071173Y-90557555D01*
X119872356Y-90634576D01*
X119872354Y-90634577D01*
X119691073Y-90746822D01*
X119533501Y-90890468D01*
X119405006Y-91060621D01*
X119309970Y-91251480D01*
X119309970Y-91251482D01*
X119251618Y-91456564D01*
X119235839Y-91626856D01*
X119231945Y-91668875D01*
X119251618Y-91881185D01*
X119296668Y-92039518D01*
X119309970Y-92086267D01*
X119309970Y-92086269D01*
X119405006Y-92277128D01*
X119533501Y-92447281D01*
X119533502Y-92447282D01*
X119691072Y-92590927D01*
X119872355Y-92703173D01*
X120071176Y-92780196D01*
X120267987Y-92816986D01*
X120330267Y-92848654D01*
X120365540Y-92908967D01*
X120362606Y-92978775D01*
X120322397Y-93035915D01*
X120267987Y-93060763D01*
X120071176Y-93097554D01*
X120071173Y-93097554D01*
X120071173Y-93097555D01*
X119872356Y-93174576D01*
X119872354Y-93174577D01*
X119691073Y-93286822D01*
X119533501Y-93430468D01*
X119405006Y-93600621D01*
X119309970Y-93791480D01*
X119309970Y-93791482D01*
X119251618Y-93996564D01*
X119231945Y-94208874D01*
X119231945Y-94208875D01*
X119251618Y-94421185D01*
X119309970Y-94626267D01*
X119309970Y-94626269D01*
X119405006Y-94817128D01*
X119405008Y-94817130D01*
X119533502Y-94987282D01*
X119691072Y-95130927D01*
X119872355Y-95243173D01*
X120071176Y-95320196D01*
X120267987Y-95356986D01*
X120330267Y-95388654D01*
X120365540Y-95448967D01*
X120362606Y-95518775D01*
X120322397Y-95575915D01*
X120267987Y-95600763D01*
X120071176Y-95637554D01*
X120071173Y-95637554D01*
X120071173Y-95637555D01*
X119872356Y-95714576D01*
X119872354Y-95714577D01*
X119691073Y-95826822D01*
X119533501Y-95970468D01*
X119405006Y-96140621D01*
X119309970Y-96331480D01*
X119309970Y-96331482D01*
X119251618Y-96536564D01*
X119231945Y-96748874D01*
X119231945Y-96748875D01*
X119251618Y-96961185D01*
X119309970Y-97166267D01*
X119309970Y-97166269D01*
X119405006Y-97357128D01*
X119405008Y-97357130D01*
X119533502Y-97527282D01*
X119691072Y-97670927D01*
X119872355Y-97783173D01*
X120071176Y-97860196D01*
X120267987Y-97896986D01*
X120330267Y-97928654D01*
X120365540Y-97988967D01*
X120362606Y-98058775D01*
X120322397Y-98115915D01*
X120267987Y-98140763D01*
X120071176Y-98177554D01*
X120071173Y-98177554D01*
X120071173Y-98177555D01*
X119872356Y-98254576D01*
X119872354Y-98254577D01*
X119691073Y-98366822D01*
X119533501Y-98510468D01*
X119405006Y-98680621D01*
X119309970Y-98871480D01*
X119309970Y-98871482D01*
X119251618Y-99076564D01*
X119231945Y-99288874D01*
X119231945Y-99288875D01*
X119251618Y-99501185D01*
X119309970Y-99706267D01*
X119309970Y-99706269D01*
X119405006Y-99897128D01*
X119405008Y-99897130D01*
X119533502Y-100067282D01*
X119691072Y-100210927D01*
X119872355Y-100323173D01*
X120071176Y-100400196D01*
X120267987Y-100436986D01*
X120330267Y-100468654D01*
X120365540Y-100528967D01*
X120362606Y-100598775D01*
X120322397Y-100655915D01*
X120267987Y-100680763D01*
X120071176Y-100717554D01*
X120071173Y-100717554D01*
X120071173Y-100717555D01*
X119872356Y-100794576D01*
X119872354Y-100794577D01*
X119691073Y-100906822D01*
X119533501Y-101050468D01*
X119405006Y-101220621D01*
X119309970Y-101411480D01*
X119309970Y-101411482D01*
X119251618Y-101616564D01*
X119231945Y-101828874D01*
X119231945Y-101828875D01*
X119251618Y-102041185D01*
X119309970Y-102246267D01*
X119309970Y-102246269D01*
X119405006Y-102437128D01*
X119405008Y-102437130D01*
X119533502Y-102607282D01*
X119691072Y-102750927D01*
X119872355Y-102863173D01*
X120071176Y-102940196D01*
X120267987Y-102976986D01*
X120330267Y-103008654D01*
X120365540Y-103068967D01*
X120362606Y-103138775D01*
X120322397Y-103195915D01*
X120267987Y-103220763D01*
X120071176Y-103257554D01*
X120071173Y-103257554D01*
X120071173Y-103257555D01*
X119872356Y-103334576D01*
X119872354Y-103334577D01*
X119691073Y-103446822D01*
X119533501Y-103590468D01*
X119405006Y-103760621D01*
X119309970Y-103951480D01*
X119309970Y-103951482D01*
X119251618Y-104156564D01*
X119231945Y-104368874D01*
X119231945Y-104368875D01*
X117199951Y-104368875D01*
X117199951Y-77685497D01*
X117199993Y-77683880D01*
X117969706Y-77683880D01*
X117988666Y-77985258D01*
X117988667Y-77985265D01*
X118045256Y-78281915D01*
X118138576Y-78569122D01*
X118138578Y-78569127D01*
X118267155Y-78842366D01*
X118267158Y-78842372D01*
X118428964Y-79097339D01*
X118509763Y-79195008D01*
X119438662Y-78266110D01*
X119539345Y-78407499D01*
X119691383Y-78552467D01*
X119793673Y-78618204D01*
X118861015Y-79550861D01*
X119085925Y-79714268D01*
X119085936Y-79714275D01*
X119350560Y-79859753D01*
X119350568Y-79859757D01*
X119631340Y-79970922D01*
X119631343Y-79970923D01*
X119923850Y-80046025D01*
X120223446Y-80083874D01*
X120223458Y-80083875D01*
X120525444Y-80083875D01*
X120525455Y-80083874D01*
X120825051Y-80046025D01*
X121117558Y-79970923D01*
X121117561Y-79970922D01*
X121398333Y-79859757D01*
X121398341Y-79859753D01*
X121662965Y-79714275D01*
X121662976Y-79714268D01*
X121887884Y-79550861D01*
X121887885Y-79550861D01*
X120957757Y-78620734D01*
X120971861Y-78613464D01*
X121136991Y-78483604D01*
X121274561Y-78324840D01*
X121309116Y-78264987D01*
X122239137Y-79195008D01*
X122319934Y-79097344D01*
X122481743Y-78842372D01*
X122481746Y-78842366D01*
X122610323Y-78569127D01*
X122610325Y-78569122D01*
X122703645Y-78281915D01*
X122760234Y-77985265D01*
X122760235Y-77985258D01*
X122779196Y-77683880D01*
X175119706Y-77683880D01*
X175138666Y-77985258D01*
X175138667Y-77985265D01*
X175195256Y-78281915D01*
X175288576Y-78569122D01*
X175288578Y-78569127D01*
X175417155Y-78842366D01*
X175417158Y-78842372D01*
X175578964Y-79097339D01*
X175659763Y-79195008D01*
X176588662Y-78266110D01*
X176689345Y-78407499D01*
X176841383Y-78552467D01*
X176943673Y-78618204D01*
X176011015Y-79550861D01*
X176235925Y-79714268D01*
X176235936Y-79714275D01*
X176500560Y-79859753D01*
X176500568Y-79859757D01*
X176781340Y-79970922D01*
X176781343Y-79970923D01*
X177073850Y-80046025D01*
X177373446Y-80083874D01*
X177373458Y-80083875D01*
X177675444Y-80083875D01*
X177675455Y-80083874D01*
X177975051Y-80046025D01*
X178267558Y-79970923D01*
X178267561Y-79970922D01*
X178548333Y-79859757D01*
X178548341Y-79859753D01*
X178812965Y-79714275D01*
X178812976Y-79714268D01*
X179037884Y-79550861D01*
X179037885Y-79550861D01*
X178107757Y-78620734D01*
X178121861Y-78613464D01*
X178286991Y-78483604D01*
X178424561Y-78324840D01*
X178459116Y-78264987D01*
X179389137Y-79195008D01*
X179469934Y-79097344D01*
X179631743Y-78842372D01*
X179631746Y-78842366D01*
X179760323Y-78569127D01*
X179760325Y-78569122D01*
X179853645Y-78281915D01*
X179910234Y-77985265D01*
X179910235Y-77985258D01*
X179929196Y-77683880D01*
X179929196Y-77683869D01*
X179910235Y-77382491D01*
X179910234Y-77382484D01*
X179853645Y-77085834D01*
X179760325Y-76798627D01*
X179760323Y-76798622D01*
X179631746Y-76525383D01*
X179631743Y-76525377D01*
X179469937Y-76270410D01*
X179389136Y-76172739D01*
X178460238Y-77101637D01*
X178359557Y-76960251D01*
X178207519Y-76815283D01*
X178105228Y-76749544D01*
X179037885Y-75816887D01*
X178812981Y-75653484D01*
X178812971Y-75653477D01*
X178548341Y-75507996D01*
X178548333Y-75507992D01*
X178267561Y-75396827D01*
X178267558Y-75396826D01*
X177975051Y-75321724D01*
X177675455Y-75283875D01*
X177373446Y-75283875D01*
X177073850Y-75321724D01*
X176781343Y-75396826D01*
X176781340Y-75396827D01*
X176500568Y-75507992D01*
X176500560Y-75507996D01*
X176235930Y-75653477D01*
X176235912Y-75653489D01*
X176011016Y-75816885D01*
X176011015Y-75816887D01*
X176941144Y-76747015D01*
X176927041Y-76754286D01*
X176761911Y-76884146D01*
X176624341Y-77042910D01*
X176589785Y-77102761D01*
X175659763Y-76172739D01*
X175578967Y-76270405D01*
X175417158Y-76525377D01*
X175417155Y-76525383D01*
X175288578Y-76798622D01*
X175288576Y-76798627D01*
X175195256Y-77085834D01*
X175138667Y-77382484D01*
X175138666Y-77382491D01*
X175119706Y-77683869D01*
X175119706Y-77683880D01*
X122779196Y-77683880D01*
X122779196Y-77683869D01*
X122760235Y-77382491D01*
X122760234Y-77382484D01*
X122703645Y-77085834D01*
X122610325Y-76798627D01*
X122610323Y-76798622D01*
X122481746Y-76525383D01*
X122481743Y-76525377D01*
X122319937Y-76270410D01*
X122239136Y-76172739D01*
X121310238Y-77101638D01*
X121209557Y-76960251D01*
X121057519Y-76815283D01*
X120955228Y-76749544D01*
X121887885Y-75816887D01*
X121662981Y-75653484D01*
X121662971Y-75653477D01*
X121398341Y-75507996D01*
X121398333Y-75507992D01*
X121117561Y-75396827D01*
X121117558Y-75396826D01*
X120825051Y-75321724D01*
X120525455Y-75283875D01*
X120223446Y-75283875D01*
X119923850Y-75321724D01*
X119631343Y-75396826D01*
X119631340Y-75396827D01*
X119350568Y-75507992D01*
X119350560Y-75507996D01*
X119085930Y-75653477D01*
X119085912Y-75653489D01*
X118861016Y-75816885D01*
X118861015Y-75816887D01*
X119791144Y-76747015D01*
X119777041Y-76754286D01*
X119611911Y-76884146D01*
X119474341Y-77042910D01*
X119439785Y-77102761D01*
X118509763Y-76172739D01*
X118428967Y-76270405D01*
X118267158Y-76525377D01*
X118267155Y-76525383D01*
X118138578Y-76798622D01*
X118138576Y-76798627D01*
X118045256Y-77085834D01*
X117988667Y-77382484D01*
X117988666Y-77382491D01*
X117969706Y-77683869D01*
X117969706Y-77683880D01*
X117199993Y-77683880D01*
X117200036Y-77682251D01*
X117200110Y-77680841D01*
X117206825Y-77552714D01*
X117218358Y-77347642D01*
X117219017Y-77341480D01*
X117243779Y-77185145D01*
X117273923Y-77007741D01*
X117275150Y-77002121D01*
X117317684Y-76843385D01*
X117365941Y-76675887D01*
X117367621Y-76670875D01*
X117427440Y-76515041D01*
X117493337Y-76355954D01*
X117495357Y-76351572D01*
X117571787Y-76201569D01*
X117654625Y-76051686D01*
X117656836Y-76048001D01*
X117749037Y-75906023D01*
X117847872Y-75766729D01*
X117850250Y-75763594D01*
X117850759Y-75762966D01*
X117956202Y-75632753D01*
X117958093Y-75630531D01*
X118070921Y-75504275D01*
X118073257Y-75501804D01*
X118192395Y-75382666D01*
X118194848Y-75380347D01*
X118321138Y-75267485D01*
X118323336Y-75265616D01*
X118454179Y-75159660D01*
X118457280Y-75157307D01*
X118596597Y-75058455D01*
X118738552Y-74966266D01*
X118742253Y-74964045D01*
X118892128Y-74881209D01*
X119042174Y-74804755D01*
X119046531Y-74802747D01*
X119205613Y-74736851D01*
X119361439Y-74677033D01*
X119366451Y-74675352D01*
X119533980Y-74627085D01*
X119692707Y-74584553D01*
X119698315Y-74583328D01*
X119875685Y-74553189D01*
X120032032Y-74528423D01*
X120038211Y-74527762D01*
X120247525Y-74516004D01*
X120372365Y-74509459D01*
X120375611Y-74509375D01*
X175229885Y-74509375D01*
X177596048Y-74513203D01*
G37*
%TD.AperFunction*%
%TD*%
M02*
