%TF.GenerationSoftware,KiCad,Pcbnew,7.0.6*%
%TF.CreationDate,2024-07-23T19:19:19+03:00*%
%TF.ProjectId,bus_input_card,6275735f-696e-4707-9574-5f636172642e,rev?*%
%TF.SameCoordinates,Original*%
%TF.FileFunction,Paste,Top*%
%TF.FilePolarity,Positive*%
%FSLAX46Y46*%
G04 Gerber Fmt 4.6, Leading zero omitted, Abs format (unit mm)*
G04 Created by KiCad (PCBNEW 7.0.6) date 2024-07-23 19:19:19*
%MOMM*%
%LPD*%
G01*
G04 APERTURE LIST*
G04 Aperture macros list*
%AMRoundRect*
0 Rectangle with rounded corners*
0 $1 Rounding radius*
0 $2 $3 $4 $5 $6 $7 $8 $9 X,Y pos of 4 corners*
0 Add a 4 corners polygon primitive as box body*
4,1,4,$2,$3,$4,$5,$6,$7,$8,$9,$2,$3,0*
0 Add four circle primitives for the rounded corners*
1,1,$1+$1,$2,$3*
1,1,$1+$1,$4,$5*
1,1,$1+$1,$6,$7*
1,1,$1+$1,$8,$9*
0 Add four rect primitives between the rounded corners*
20,1,$1+$1,$2,$3,$4,$5,0*
20,1,$1+$1,$4,$5,$6,$7,0*
20,1,$1+$1,$6,$7,$8,$9,0*
20,1,$1+$1,$8,$9,$2,$3,0*%
G04 Aperture macros list end*
%ADD10RoundRect,0.250000X-0.375000X-0.625000X0.375000X-0.625000X0.375000X0.625000X-0.375000X0.625000X0*%
%ADD11RoundRect,0.250000X-0.450000X0.262500X-0.450000X-0.262500X0.450000X-0.262500X0.450000X0.262500X0*%
%ADD12RoundRect,0.250000X-0.262500X-0.450000X0.262500X-0.450000X0.262500X0.450000X-0.262500X0.450000X0*%
%ADD13RoundRect,0.250000X-0.475000X0.250000X-0.475000X-0.250000X0.475000X-0.250000X0.475000X0.250000X0*%
%ADD14RoundRect,0.250000X0.450000X-0.262500X0.450000X0.262500X-0.450000X0.262500X-0.450000X-0.262500X0*%
%ADD15RoundRect,0.250000X0.625000X-0.375000X0.625000X0.375000X-0.625000X0.375000X-0.625000X-0.375000X0*%
%ADD16RoundRect,0.250000X0.262500X0.450000X-0.262500X0.450000X-0.262500X-0.450000X0.262500X-0.450000X0*%
%ADD17R,1.250000X2.500000*%
%ADD18R,1.200000X0.700000*%
%ADD19R,1.200000X0.760000*%
%ADD20R,1.200000X0.800000*%
%ADD21R,1.350000X1.800000*%
%ADD22R,1.500000X1.800000*%
%ADD23RoundRect,0.051250X0.153750X-0.733750X0.153750X0.733750X-0.153750X0.733750X-0.153750X-0.733750X0*%
%ADD24R,2.000000X1.500000*%
%ADD25R,2.000000X3.800000*%
%ADD26R,0.760000X1.250000*%
%ADD27RoundRect,0.250000X-0.250000X-0.475000X0.250000X-0.475000X0.250000X0.475000X-0.250000X0.475000X0*%
G04 APERTURE END LIST*
D10*
%TO.C,D7*%
X132944451Y-90291017D03*
X135744451Y-90291017D03*
%TD*%
D11*
%TO.C,R21*%
X156438600Y-88980000D03*
X156438600Y-90805000D03*
%TD*%
D12*
%TO.C,R8*%
X128351951Y-93739588D03*
X130176951Y-93739588D03*
%TD*%
D10*
%TO.C,D2*%
X132944451Y-107543600D03*
X135744451Y-107543600D03*
%TD*%
D13*
%TO.C,C3*%
X154664451Y-97882367D03*
X154664451Y-99782367D03*
%TD*%
D12*
%TO.C,R5*%
X128351951Y-83393875D03*
X130176951Y-83393875D03*
%TD*%
%TO.C,R9*%
X128351951Y-97188159D03*
X130176951Y-97188159D03*
%TD*%
D11*
%TO.C,R4*%
X171174451Y-99412938D03*
X171174451Y-101237938D03*
%TD*%
D12*
%TO.C,R12*%
X128351951Y-107533875D03*
X130176951Y-107533875D03*
%TD*%
D14*
%TO.C,R15*%
X142218451Y-84514575D03*
X142218451Y-82689575D03*
%TD*%
D15*
%TO.C,D1*%
X163367305Y-89409608D03*
X163367305Y-86609608D03*
%TD*%
D16*
%TO.C,R2*%
X177166951Y-87208875D03*
X175341951Y-87208875D03*
%TD*%
D17*
%TO.C,SW1*%
X147189244Y-105259210D03*
X149689244Y-105259210D03*
X152189244Y-105259210D03*
%TD*%
D18*
%TO.C,J1*%
X174491951Y-95963875D03*
D19*
X174491951Y-93943875D03*
D20*
X174491951Y-92713875D03*
D18*
X174491951Y-94963875D03*
D19*
X174491951Y-96983875D03*
D20*
X174491951Y-98213875D03*
D21*
X174546951Y-100588875D03*
D22*
X178126951Y-100588875D03*
D21*
X174546951Y-90338875D03*
D22*
X178126951Y-90338875D03*
%TD*%
D10*
%TO.C,D4*%
X132944451Y-100634800D03*
X135744451Y-100634800D03*
%TD*%
D23*
%TO.C,U2*%
X146655600Y-101269600D03*
X147305600Y-101269600D03*
X147955600Y-101269600D03*
X148605600Y-101269600D03*
X149255600Y-101269600D03*
X149905600Y-101269600D03*
X150555600Y-101269600D03*
X151205600Y-101269600D03*
X151855600Y-101269600D03*
X152505600Y-101269600D03*
X152505600Y-95529600D03*
X151855600Y-95529600D03*
X151205600Y-95529600D03*
X150555600Y-95529600D03*
X149905600Y-95529600D03*
X149255600Y-95529600D03*
X148605600Y-95529600D03*
X147955600Y-95529600D03*
X147305600Y-95529600D03*
X146655600Y-95529600D03*
%TD*%
D24*
%TO.C,U1*%
X167314451Y-96493875D03*
X167314451Y-94193875D03*
D25*
X161014451Y-94193875D03*
D24*
X167314451Y-91893875D03*
%TD*%
D10*
%TO.C,D9*%
X132944451Y-83393875D03*
X135744451Y-83393875D03*
%TD*%
D11*
%TO.C,R16*%
X142468600Y-88980000D03*
X142468600Y-90805000D03*
%TD*%
%TO.C,R20*%
X153644600Y-88980000D03*
X153644600Y-90805000D03*
%TD*%
%TO.C,R19*%
X150850600Y-88980000D03*
X150850600Y-90805000D03*
%TD*%
D10*
%TO.C,D8*%
X132944451Y-86842446D03*
X135744451Y-86842446D03*
%TD*%
D11*
%TO.C,R17*%
X145262600Y-88980000D03*
X145262600Y-90805000D03*
%TD*%
D12*
%TO.C,R6*%
X128351951Y-86842446D03*
X130176951Y-86842446D03*
%TD*%
D26*
%TO.C,SW2*%
X145101351Y-86652650D03*
X146371351Y-86652650D03*
X147641351Y-86652650D03*
X148911351Y-86652650D03*
X150181351Y-86652650D03*
X151451351Y-86652650D03*
X152721351Y-86652650D03*
X153991351Y-86652650D03*
X153991351Y-80502650D03*
X152721351Y-80502650D03*
X151451351Y-80502650D03*
X150181351Y-80502650D03*
X148911351Y-80502650D03*
X147641351Y-80502650D03*
X146371351Y-80502650D03*
X145101351Y-80502650D03*
%TD*%
D11*
%TO.C,R13*%
X143339244Y-107053157D03*
X143339244Y-108878157D03*
%TD*%
D10*
%TO.C,D3*%
X132944451Y-104089200D03*
X135744451Y-104089200D03*
%TD*%
%TO.C,D5*%
X132944451Y-97188159D03*
X135744451Y-97188159D03*
%TD*%
D12*
%TO.C,R10*%
X128351951Y-100636730D03*
X130176951Y-100636730D03*
%TD*%
D11*
%TO.C,R18*%
X148056600Y-88980000D03*
X148056600Y-90805000D03*
%TD*%
D14*
%TO.C,R22*%
X156874251Y-84565375D03*
X156874251Y-82740375D03*
%TD*%
D10*
%TO.C,D6*%
X132944451Y-93739588D03*
X135744451Y-93739588D03*
%TD*%
D14*
%TO.C,R3*%
X171174451Y-91524480D03*
X171174451Y-89699480D03*
%TD*%
%TO.C,R14*%
X156039244Y-108878157D03*
X156039244Y-107053157D03*
%TD*%
D12*
%TO.C,R7*%
X128351951Y-90291017D03*
X130176951Y-90291017D03*
%TD*%
D16*
%TO.C,R1*%
X167804951Y-85938875D03*
X165979951Y-85938875D03*
%TD*%
D13*
%TO.C,C2*%
X169854451Y-95148875D03*
X169854451Y-97048875D03*
%TD*%
D27*
%TO.C,C1*%
X165942451Y-89392474D03*
X167842451Y-89392474D03*
%TD*%
D12*
%TO.C,R11*%
X128351951Y-104085301D03*
X130176951Y-104085301D03*
%TD*%
M02*
