%TF.GenerationSoftware,KiCad,Pcbnew,7.0.6*%
%TF.CreationDate,2024-07-23T19:19:19+03:00*%
%TF.ProjectId,bus_input_card,6275735f-696e-4707-9574-5f636172642e,rev?*%
%TF.SameCoordinates,Original*%
%TF.FileFunction,Copper,L1,Top*%
%TF.FilePolarity,Positive*%
%FSLAX46Y46*%
G04 Gerber Fmt 4.6, Leading zero omitted, Abs format (unit mm)*
G04 Created by KiCad (PCBNEW 7.0.6) date 2024-07-23 19:19:19*
%MOMM*%
%LPD*%
G01*
G04 APERTURE LIST*
G04 Aperture macros list*
%AMRoundRect*
0 Rectangle with rounded corners*
0 $1 Rounding radius*
0 $2 $3 $4 $5 $6 $7 $8 $9 X,Y pos of 4 corners*
0 Add a 4 corners polygon primitive as box body*
4,1,4,$2,$3,$4,$5,$6,$7,$8,$9,$2,$3,0*
0 Add four circle primitives for the rounded corners*
1,1,$1+$1,$2,$3*
1,1,$1+$1,$4,$5*
1,1,$1+$1,$6,$7*
1,1,$1+$1,$8,$9*
0 Add four rect primitives between the rounded corners*
20,1,$1+$1,$2,$3,$4,$5,0*
20,1,$1+$1,$4,$5,$6,$7,0*
20,1,$1+$1,$6,$7,$8,$9,0*
20,1,$1+$1,$8,$9,$2,$3,0*%
G04 Aperture macros list end*
%TA.AperFunction,SMDPad,CuDef*%
%ADD10RoundRect,0.250000X-0.375000X-0.625000X0.375000X-0.625000X0.375000X0.625000X-0.375000X0.625000X0*%
%TD*%
%TA.AperFunction,SMDPad,CuDef*%
%ADD11RoundRect,0.250000X-0.450000X0.262500X-0.450000X-0.262500X0.450000X-0.262500X0.450000X0.262500X0*%
%TD*%
%TA.AperFunction,SMDPad,CuDef*%
%ADD12RoundRect,0.250000X-0.262500X-0.450000X0.262500X-0.450000X0.262500X0.450000X-0.262500X0.450000X0*%
%TD*%
%TA.AperFunction,SMDPad,CuDef*%
%ADD13RoundRect,0.250000X-0.475000X0.250000X-0.475000X-0.250000X0.475000X-0.250000X0.475000X0.250000X0*%
%TD*%
%TA.AperFunction,ComponentPad*%
%ADD14R,1.700000X1.700000*%
%TD*%
%TA.AperFunction,ComponentPad*%
%ADD15O,1.700000X1.700000*%
%TD*%
%TA.AperFunction,SMDPad,CuDef*%
%ADD16RoundRect,0.250000X0.450000X-0.262500X0.450000X0.262500X-0.450000X0.262500X-0.450000X-0.262500X0*%
%TD*%
%TA.AperFunction,SMDPad,CuDef*%
%ADD17RoundRect,0.250000X0.625000X-0.375000X0.625000X0.375000X-0.625000X0.375000X-0.625000X-0.375000X0*%
%TD*%
%TA.AperFunction,SMDPad,CuDef*%
%ADD18RoundRect,0.250000X0.262500X0.450000X-0.262500X0.450000X-0.262500X-0.450000X0.262500X-0.450000X0*%
%TD*%
%TA.AperFunction,SMDPad,CuDef*%
%ADD19R,1.250000X2.500000*%
%TD*%
%TA.AperFunction,SMDPad,CuDef*%
%ADD20R,1.200000X0.700000*%
%TD*%
%TA.AperFunction,SMDPad,CuDef*%
%ADD21R,1.200000X0.760000*%
%TD*%
%TA.AperFunction,SMDPad,CuDef*%
%ADD22R,1.200000X0.800000*%
%TD*%
%TA.AperFunction,SMDPad,CuDef*%
%ADD23R,1.350000X1.800000*%
%TD*%
%TA.AperFunction,SMDPad,CuDef*%
%ADD24R,1.500000X1.800000*%
%TD*%
%TA.AperFunction,SMDPad,CuDef*%
%ADD25RoundRect,0.051250X0.153750X-0.733750X0.153750X0.733750X-0.153750X0.733750X-0.153750X-0.733750X0*%
%TD*%
%TA.AperFunction,SMDPad,CuDef*%
%ADD26R,2.000000X1.500000*%
%TD*%
%TA.AperFunction,SMDPad,CuDef*%
%ADD27R,2.000000X3.800000*%
%TD*%
%TA.AperFunction,ComponentPad*%
%ADD28C,3.800000*%
%TD*%
%TA.AperFunction,SMDPad,CuDef*%
%ADD29R,0.760000X1.250000*%
%TD*%
%TA.AperFunction,SMDPad,CuDef*%
%ADD30RoundRect,0.250000X-0.250000X-0.475000X0.250000X-0.475000X0.250000X0.475000X-0.250000X0.475000X0*%
%TD*%
%TA.AperFunction,ViaPad*%
%ADD31C,0.800000*%
%TD*%
%TA.AperFunction,ViaPad*%
%ADD32C,0.700000*%
%TD*%
%TA.AperFunction,Conductor*%
%ADD33C,0.500000*%
%TD*%
%TA.AperFunction,Conductor*%
%ADD34C,0.300000*%
%TD*%
%TA.AperFunction,Conductor*%
%ADD35C,0.250000*%
%TD*%
G04 APERTURE END LIST*
D10*
%TO.P,D7,1,K*%
%TO.N,Net-(D7-K)*%
X132944451Y-90291017D03*
%TO.P,D7,2,A*%
%TO.N,Net-(D7-A)*%
X135744451Y-90291017D03*
%TD*%
D11*
%TO.P,R21,1*%
%TO.N,Net-(U2-B6)*%
X156438600Y-88980000D03*
%TO.P,R21,2*%
%TO.N,VCC*%
X156438600Y-90805000D03*
%TD*%
D12*
%TO.P,R8,1*%
%TO.N,GND*%
X128351951Y-93739588D03*
%TO.P,R8,2*%
%TO.N,Net-(D6-K)*%
X130176951Y-93739588D03*
%TD*%
D10*
%TO.P,D2,1,K*%
%TO.N,Net-(D2-K)*%
X132944451Y-107543600D03*
%TO.P,D2,2,A*%
%TO.N,Net-(D2-A)*%
X135744451Y-107543600D03*
%TD*%
D13*
%TO.P,C3,1*%
%TO.N,Net-(U2-CE)*%
X154664451Y-97882367D03*
%TO.P,C3,2*%
%TO.N,GND*%
X154664451Y-99782367D03*
%TD*%
D12*
%TO.P,R5,1*%
%TO.N,GND*%
X128351951Y-83393875D03*
%TO.P,R5,2*%
%TO.N,Net-(D9-K)*%
X130176951Y-83393875D03*
%TD*%
%TO.P,R9,1*%
%TO.N,GND*%
X128351951Y-97188159D03*
%TO.P,R9,2*%
%TO.N,Net-(D5-K)*%
X130176951Y-97188159D03*
%TD*%
D14*
%TO.P,J2,1,Pin_1*%
%TO.N,Net-(D9-A)*%
X120387374Y-86588875D03*
D15*
%TO.P,J2,2,Pin_2*%
%TO.N,Net-(D8-A)*%
X120387374Y-89128875D03*
%TO.P,J2,3,Pin_3*%
%TO.N,Net-(D7-A)*%
X120387374Y-91668875D03*
%TO.P,J2,4,Pin_4*%
%TO.N,Net-(D6-A)*%
X120387374Y-94208875D03*
%TO.P,J2,5,Pin_5*%
%TO.N,Net-(D5-A)*%
X120387374Y-96748875D03*
%TO.P,J2,6,Pin_6*%
%TO.N,Net-(D4-A)*%
X120387374Y-99288875D03*
%TO.P,J2,7,Pin_7*%
%TO.N,Net-(D3-A)*%
X120387374Y-101828875D03*
%TO.P,J2,8,Pin_8*%
%TO.N,Net-(D2-A)*%
X120387374Y-104368875D03*
%TD*%
D11*
%TO.P,R4,1*%
%TO.N,Net-(J1-CC1)*%
X171174451Y-99412938D03*
%TO.P,R4,2*%
%TO.N,GND*%
X171174451Y-101237938D03*
%TD*%
D12*
%TO.P,R12,1*%
%TO.N,GND*%
X128351951Y-107533875D03*
%TO.P,R12,2*%
%TO.N,Net-(D2-K)*%
X130176951Y-107533875D03*
%TD*%
D16*
%TO.P,R15,1*%
%TO.N,Net-(U2-B0)*%
X142218451Y-84514575D03*
%TO.P,R15,2*%
%TO.N,VCC*%
X142218451Y-82689575D03*
%TD*%
D17*
%TO.P,D1,1,K*%
%TO.N,Net-(D1-K)*%
X163367305Y-89409608D03*
%TO.P,D1,2,A*%
%TO.N,VCC*%
X163367305Y-86609608D03*
%TD*%
D18*
%TO.P,R2,1*%
%TO.N,Net-(J1-SHIELD)*%
X177166951Y-87208875D03*
%TO.P,R2,2*%
%TO.N,GND*%
X175341951Y-87208875D03*
%TD*%
D19*
%TO.P,SW1,1,A*%
%TO.N,Net-(SW1-A)*%
X147189244Y-105259210D03*
%TO.P,SW1,2,B*%
%TO.N,Net-(SW1-B)*%
X149689244Y-105259210D03*
%TO.P,SW1,3,C*%
%TO.N,VCC*%
X152189244Y-105259210D03*
%TD*%
D20*
%TO.P,J1,A5,CC1*%
%TO.N,Net-(J1-CC1)*%
X174491951Y-95963875D03*
D21*
%TO.P,J1,A9,VBUS*%
%TO.N,VBUS*%
X174491951Y-93943875D03*
D22*
%TO.P,J1,A12,GND*%
%TO.N,GND*%
X174491951Y-92713875D03*
D20*
%TO.P,J1,B5,CC2*%
%TO.N,Net-(J1-CC2)*%
X174491951Y-94963875D03*
D21*
%TO.P,J1,B9,VBUS*%
%TO.N,VBUS*%
X174491951Y-96983875D03*
D22*
%TO.P,J1,B12,GND*%
%TO.N,GND*%
X174491951Y-98213875D03*
D23*
%TO.P,J1,S1,SHIELD*%
%TO.N,Net-(J1-SHIELD)*%
X174546951Y-100588875D03*
D24*
X178126951Y-100588875D03*
D23*
X174546951Y-90338875D03*
D24*
X178126951Y-90338875D03*
%TD*%
D10*
%TO.P,D4,1,K*%
%TO.N,Net-(D4-K)*%
X132944451Y-100634800D03*
%TO.P,D4,2,A*%
%TO.N,Net-(D4-A)*%
X135744451Y-100634800D03*
%TD*%
D25*
%TO.P,U2,1,A->B*%
%TO.N,GND*%
X146655600Y-101269600D03*
%TO.P,U2,2,A0*%
%TO.N,Net-(D2-A)*%
X147305600Y-101269600D03*
%TO.P,U2,3,A1*%
%TO.N,Net-(D3-A)*%
X147955600Y-101269600D03*
%TO.P,U2,4,A2*%
%TO.N,Net-(D4-A)*%
X148605600Y-101269600D03*
%TO.P,U2,5,A3*%
%TO.N,Net-(D5-A)*%
X149255600Y-101269600D03*
%TO.P,U2,6,A4*%
%TO.N,Net-(D6-A)*%
X149905600Y-101269600D03*
%TO.P,U2,7,A5*%
%TO.N,Net-(D7-A)*%
X150555600Y-101269600D03*
%TO.P,U2,8,A6*%
%TO.N,Net-(D8-A)*%
X151205600Y-101269600D03*
%TO.P,U2,9,A7*%
%TO.N,Net-(D9-A)*%
X151855600Y-101269600D03*
%TO.P,U2,10,GND*%
%TO.N,GND*%
X152505600Y-101269600D03*
%TO.P,U2,11,B7*%
%TO.N,Net-(U2-B7)*%
X152505600Y-95529600D03*
%TO.P,U2,12,B6*%
%TO.N,Net-(U2-B6)*%
X151855600Y-95529600D03*
%TO.P,U2,13,B5*%
%TO.N,Net-(U2-B5)*%
X151205600Y-95529600D03*
%TO.P,U2,14,B4*%
%TO.N,Net-(U2-B4)*%
X150555600Y-95529600D03*
%TO.P,U2,15,B3*%
%TO.N,Net-(U2-B3)*%
X149905600Y-95529600D03*
%TO.P,U2,16,B2*%
%TO.N,Net-(U2-B2)*%
X149255600Y-95529600D03*
%TO.P,U2,17,B1*%
%TO.N,Net-(U2-B1)*%
X148605600Y-95529600D03*
%TO.P,U2,18,B0*%
%TO.N,Net-(U2-B0)*%
X147955600Y-95529600D03*
%TO.P,U2,19,CE*%
%TO.N,Net-(U2-CE)*%
X147305600Y-95529600D03*
%TO.P,U2,20,VCC*%
%TO.N,VCC*%
X146655600Y-95529600D03*
%TD*%
D26*
%TO.P,U1,1,GND*%
%TO.N,GND*%
X167314451Y-96493875D03*
%TO.P,U1,2,VO*%
%TO.N,VCC*%
X167314451Y-94193875D03*
D27*
X161014451Y-94193875D03*
D26*
%TO.P,U1,3,VI*%
%TO.N,VBUS*%
X167314451Y-91893875D03*
%TD*%
D28*
%TO.P,H2,1,1*%
%TO.N,GND*%
X120374451Y-113243875D03*
%TD*%
D10*
%TO.P,D9,1,K*%
%TO.N,Net-(D9-K)*%
X132944451Y-83393875D03*
%TO.P,D9,2,A*%
%TO.N,Net-(D9-A)*%
X135744451Y-83393875D03*
%TD*%
D11*
%TO.P,R16,1*%
%TO.N,Net-(U2-B1)*%
X142468600Y-88980000D03*
%TO.P,R16,2*%
%TO.N,VCC*%
X142468600Y-90805000D03*
%TD*%
%TO.P,R20,1*%
%TO.N,Net-(U2-B5)*%
X153644600Y-88980000D03*
%TO.P,R20,2*%
%TO.N,VCC*%
X153644600Y-90805000D03*
%TD*%
%TO.P,R19,1*%
%TO.N,Net-(U2-B4)*%
X150850600Y-88980000D03*
%TO.P,R19,2*%
%TO.N,VCC*%
X150850600Y-90805000D03*
%TD*%
D28*
%TO.P,H1,1,1*%
%TO.N,GND*%
X120374451Y-77683875D03*
%TD*%
D10*
%TO.P,D8,1,K*%
%TO.N,Net-(D8-K)*%
X132944451Y-86842446D03*
%TO.P,D8,2,A*%
%TO.N,Net-(D8-A)*%
X135744451Y-86842446D03*
%TD*%
D11*
%TO.P,R17,1*%
%TO.N,Net-(U2-B2)*%
X145262600Y-88980000D03*
%TO.P,R17,2*%
%TO.N,VCC*%
X145262600Y-90805000D03*
%TD*%
D12*
%TO.P,R6,1*%
%TO.N,GND*%
X128351951Y-86842446D03*
%TO.P,R6,2*%
%TO.N,Net-(D8-K)*%
X130176951Y-86842446D03*
%TD*%
D29*
%TO.P,SW2,1*%
%TO.N,Net-(U2-B0)*%
X145101351Y-86652650D03*
%TO.P,SW2,2*%
%TO.N,Net-(U2-B1)*%
X146371351Y-86652650D03*
%TO.P,SW2,3*%
%TO.N,Net-(U2-B2)*%
X147641351Y-86652650D03*
%TO.P,SW2,4*%
%TO.N,Net-(U2-B3)*%
X148911351Y-86652650D03*
%TO.P,SW2,5*%
%TO.N,Net-(U2-B4)*%
X150181351Y-86652650D03*
%TO.P,SW2,6*%
%TO.N,Net-(U2-B5)*%
X151451351Y-86652650D03*
%TO.P,SW2,7*%
%TO.N,Net-(U2-B6)*%
X152721351Y-86652650D03*
%TO.P,SW2,8*%
%TO.N,Net-(U2-B7)*%
X153991351Y-86652650D03*
%TO.P,SW2,9*%
%TO.N,GND*%
X153991351Y-80502650D03*
%TO.P,SW2,10*%
X152721351Y-80502650D03*
%TO.P,SW2,11*%
X151451351Y-80502650D03*
%TO.P,SW2,12*%
X150181351Y-80502650D03*
%TO.P,SW2,13*%
X148911351Y-80502650D03*
%TO.P,SW2,14*%
X147641351Y-80502650D03*
%TO.P,SW2,15*%
X146371351Y-80502650D03*
%TO.P,SW2,16*%
X145101351Y-80502650D03*
%TD*%
D11*
%TO.P,R13,1*%
%TO.N,GND*%
X143339244Y-107053157D03*
%TO.P,R13,2*%
%TO.N,Net-(SW1-A)*%
X143339244Y-108878157D03*
%TD*%
D10*
%TO.P,D3,1,K*%
%TO.N,Net-(D3-K)*%
X132944451Y-104089200D03*
%TO.P,D3,2,A*%
%TO.N,Net-(D3-A)*%
X135744451Y-104089200D03*
%TD*%
%TO.P,D5,1,K*%
%TO.N,Net-(D5-K)*%
X132944451Y-97188159D03*
%TO.P,D5,2,A*%
%TO.N,Net-(D5-A)*%
X135744451Y-97188159D03*
%TD*%
D12*
%TO.P,R10,1*%
%TO.N,GND*%
X128351951Y-100636730D03*
%TO.P,R10,2*%
%TO.N,Net-(D4-K)*%
X130176951Y-100636730D03*
%TD*%
D11*
%TO.P,R18,1*%
%TO.N,Net-(U2-B3)*%
X148056600Y-88980000D03*
%TO.P,R18,2*%
%TO.N,VCC*%
X148056600Y-90805000D03*
%TD*%
D16*
%TO.P,R22,1*%
%TO.N,Net-(U2-B7)*%
X156874251Y-84565375D03*
%TO.P,R22,2*%
%TO.N,VCC*%
X156874251Y-82740375D03*
%TD*%
D10*
%TO.P,D6,1,K*%
%TO.N,Net-(D6-K)*%
X132944451Y-93739588D03*
%TO.P,D6,2,A*%
%TO.N,Net-(D6-A)*%
X135744451Y-93739588D03*
%TD*%
D16*
%TO.P,R3,1*%
%TO.N,Net-(J1-CC2)*%
X171174451Y-91524480D03*
%TO.P,R3,2*%
%TO.N,GND*%
X171174451Y-89699480D03*
%TD*%
D28*
%TO.P,H4,1,1*%
%TO.N,GND*%
X177524451Y-113243875D03*
%TD*%
D16*
%TO.P,R14,1*%
%TO.N,Net-(SW1-B)*%
X156039244Y-108878157D03*
%TO.P,R14,2*%
%TO.N,Net-(U2-CE)*%
X156039244Y-107053157D03*
%TD*%
D12*
%TO.P,R7,1*%
%TO.N,GND*%
X128351951Y-90291017D03*
%TO.P,R7,2*%
%TO.N,Net-(D7-K)*%
X130176951Y-90291017D03*
%TD*%
D28*
%TO.P,H3,1,1*%
%TO.N,GND*%
X177524451Y-77683875D03*
%TD*%
D18*
%TO.P,R1,1*%
%TO.N,GND*%
X167804951Y-85938875D03*
%TO.P,R1,2*%
%TO.N,Net-(D1-K)*%
X165979951Y-85938875D03*
%TD*%
D13*
%TO.P,C2,1*%
%TO.N,VCC*%
X169854451Y-95148875D03*
%TO.P,C2,2*%
%TO.N,GND*%
X169854451Y-97048875D03*
%TD*%
D30*
%TO.P,C1,1*%
%TO.N,VBUS*%
X165942451Y-89392474D03*
%TO.P,C1,2*%
%TO.N,GND*%
X167842451Y-89392474D03*
%TD*%
D12*
%TO.P,R11,1*%
%TO.N,GND*%
X128351951Y-104085301D03*
%TO.P,R11,2*%
%TO.N,Net-(D3-K)*%
X130176951Y-104085301D03*
%TD*%
D31*
%TO.N,GND*%
X126927651Y-83393875D03*
D32*
X143340802Y-105670870D03*
D31*
X126927651Y-97191075D03*
D32*
X165332451Y-96479875D03*
X146371351Y-81830500D03*
X172698451Y-92720675D03*
D31*
X126927651Y-86842446D03*
X126927651Y-93739588D03*
X126927651Y-100594675D03*
X126927651Y-90291017D03*
D32*
X173714451Y-87183475D03*
X148894800Y-81830500D03*
X155194000Y-101142800D03*
X169574251Y-101229675D03*
X152704800Y-81830500D03*
D31*
X126927651Y-103541075D03*
X126927651Y-106258875D03*
D32*
X151434800Y-81830500D03*
X168634451Y-87894675D03*
X145561963Y-101315163D03*
X169244051Y-85938875D03*
X147624800Y-81830500D03*
X169629900Y-89699480D03*
X172647651Y-98232475D03*
X150164800Y-81830500D03*
X153974800Y-81830500D03*
X154228800Y-101752400D03*
X145101351Y-81830500D03*
%TO.N,VCC*%
X148056600Y-92009475D03*
X158220451Y-92949275D03*
X142872761Y-92665707D03*
X140245100Y-90942675D03*
X145266451Y-92009475D03*
X156870400Y-92009475D03*
X150850600Y-92005624D03*
X153644600Y-92005624D03*
%TO.N,Net-(D2-A)*%
X139328419Y-105148113D03*
X139328419Y-103712037D03*
%TD*%
D33*
%TO.N,VBUS*%
X171457851Y-93943875D02*
X169407851Y-91893875D01*
X165942451Y-90521875D02*
X167314451Y-91893875D01*
X174491951Y-96983875D02*
X173661951Y-96983875D01*
X172444451Y-95766375D02*
X172444451Y-93943875D01*
X173661951Y-96983875D02*
X172444451Y-95766375D01*
X165942451Y-89392474D02*
X165942451Y-90521875D01*
X169407851Y-91893875D02*
X167314451Y-91893875D01*
X174491951Y-93943875D02*
X171457851Y-93943875D01*
%TO.N,GND*%
X174491951Y-98213875D02*
X172666251Y-98213875D01*
X126927651Y-97191075D02*
X128349035Y-97191075D01*
X169244451Y-85938875D02*
X169244051Y-85938875D01*
X155194000Y-101142800D02*
X154664451Y-100613251D01*
X150181351Y-81813949D02*
X150164800Y-81830500D01*
X148911351Y-81813949D02*
X148894800Y-81830500D01*
X148911351Y-80502650D02*
X148911351Y-81813949D01*
X169575700Y-101231124D02*
X169574251Y-101229675D01*
X167314451Y-96493875D02*
X168089651Y-96493875D01*
X167641951Y-85938875D02*
X169244451Y-85938875D01*
X145101351Y-80502650D02*
X145101351Y-81830500D01*
X126927651Y-106258875D02*
X127076951Y-106258875D01*
X169575700Y-101237938D02*
X169575700Y-101231124D01*
X147641351Y-80502650D02*
X147641351Y-81813949D01*
D34*
X146655600Y-101269600D02*
X145607526Y-101269600D01*
D33*
X143339244Y-107096710D02*
X143339244Y-105672428D01*
X152721351Y-81813949D02*
X152704800Y-81830500D01*
X128349035Y-97191075D02*
X128351951Y-97188159D01*
X165344640Y-96492064D02*
X165332451Y-96479875D01*
X128309896Y-100594675D02*
X128351951Y-100636730D01*
X154664451Y-100613251D02*
X154664451Y-99782367D01*
X168089651Y-96493875D02*
X168644651Y-97048875D01*
X168644651Y-97048875D02*
X169854451Y-97048875D01*
X153991351Y-80502650D02*
X153991351Y-81813949D01*
X127076951Y-106258875D02*
X128351951Y-107533875D01*
X165344640Y-96493875D02*
X165344640Y-96492064D01*
X147641351Y-81813949D02*
X147624800Y-81830500D01*
D34*
X153746000Y-101269600D02*
X154228800Y-101752400D01*
D33*
X126927651Y-83393875D02*
X128351951Y-83393875D01*
X171174451Y-89699480D02*
X169629900Y-89699480D01*
X151451351Y-81813949D02*
X151434800Y-81830500D01*
X153991351Y-81813949D02*
X153974800Y-81830500D01*
X172666251Y-98213875D02*
X172647651Y-98232475D01*
X167314451Y-96493875D02*
X165344640Y-96493875D01*
X150181351Y-80502650D02*
X150181351Y-81813949D01*
X126927651Y-86842446D02*
X128351951Y-86842446D01*
X126927651Y-100594675D02*
X128309896Y-100594675D01*
X168634451Y-87843875D02*
X168634451Y-87894675D01*
X168634451Y-87843875D02*
X168634451Y-88600474D01*
X172705251Y-92713875D02*
X172698451Y-92720675D01*
X127807725Y-103541075D02*
X128351951Y-104085301D01*
X146371351Y-80502650D02*
X146371351Y-81830500D01*
X175341951Y-87208875D02*
X173714451Y-87208875D01*
D34*
X152505600Y-101269600D02*
X153746000Y-101269600D01*
D33*
X171174451Y-101237938D02*
X169575700Y-101237938D01*
X169622931Y-89692511D02*
X169629900Y-89699480D01*
X126927651Y-90291017D02*
X128351951Y-90291017D01*
X152721351Y-80502650D02*
X152721351Y-81813949D01*
D34*
X145607526Y-101269600D02*
X145561963Y-101315163D01*
D33*
X174491951Y-92713875D02*
X172705251Y-92713875D01*
X173714451Y-87208875D02*
X173714451Y-87183475D01*
X126927651Y-93739588D02*
X128351951Y-93739588D01*
X143339244Y-105672428D02*
X143340802Y-105670870D01*
X151451351Y-80502650D02*
X151451351Y-81813949D01*
X126927651Y-103541075D02*
X127807725Y-103541075D01*
X168634451Y-88600474D02*
X167842451Y-89392474D01*
D34*
%TO.N,VCC*%
X142633869Y-94193875D02*
X139674600Y-91234606D01*
D33*
X161014451Y-94193875D02*
X161014451Y-84033875D01*
X158220451Y-92949275D02*
X159769851Y-92949275D01*
X159610576Y-82630000D02*
X142007600Y-82630000D01*
X159769851Y-92949275D02*
X161014451Y-94193875D01*
X158474451Y-109433875D02*
X158474451Y-96733875D01*
X156438600Y-91523024D02*
X156906716Y-91991140D01*
X142007600Y-82630000D02*
X139602251Y-85035349D01*
X140245100Y-90086924D02*
X139602251Y-89444075D01*
X156906716Y-91991140D02*
X156888735Y-91991140D01*
D34*
X145879244Y-94193875D02*
X142633869Y-94193875D01*
D33*
X161014451Y-84033875D02*
X159610576Y-82630000D01*
X152142301Y-107598508D02*
X152129244Y-107611565D01*
X152129244Y-107611565D02*
X152129244Y-109337068D01*
X153496051Y-110703875D02*
X157204451Y-110703875D01*
X145262600Y-90805000D02*
X145262600Y-92005624D01*
X157204451Y-110703875D02*
X158474451Y-109433875D01*
X153644600Y-90805000D02*
X153644600Y-92005624D01*
X152142301Y-105259210D02*
X152142301Y-107598508D01*
D34*
X146655600Y-95529600D02*
X146655600Y-94970231D01*
D33*
X167314451Y-94193875D02*
X169376951Y-94193875D01*
X163367305Y-86386729D02*
X161014451Y-84033875D01*
X145262600Y-92005624D02*
X145266451Y-92009475D01*
X142468600Y-92261546D02*
X142872761Y-92665707D01*
X148056600Y-91987926D02*
X148035051Y-92009475D01*
D34*
X146655600Y-94970231D02*
X145879244Y-94193875D01*
D33*
X139602251Y-85035349D02*
X139602251Y-89444075D01*
X142468600Y-90805000D02*
X142468600Y-92261546D01*
X158474451Y-96733875D02*
X161014451Y-94193875D01*
X148056600Y-90805000D02*
X148056600Y-91987926D01*
X169376951Y-94193875D02*
X169854451Y-94671375D01*
X140245100Y-90942675D02*
X140245100Y-90086924D01*
X152129244Y-109337068D02*
X153496051Y-110703875D01*
X169854451Y-94671375D02*
X169854451Y-95148875D01*
X139602251Y-89444075D02*
X139602251Y-91090151D01*
X163367305Y-86609608D02*
X163367305Y-86386729D01*
X156888735Y-91991140D02*
X156870400Y-92009475D01*
X156438600Y-90805000D02*
X156438600Y-91523024D01*
X150850600Y-90805000D02*
X150850600Y-92005624D01*
D34*
%TO.N,Net-(U2-CE)*%
X150825200Y-96824800D02*
X151369275Y-97368875D01*
X147305600Y-95529600D02*
X147305600Y-96350752D01*
X155934451Y-98003875D02*
X156569451Y-98638875D01*
X156569451Y-98638875D02*
X156569451Y-105253749D01*
X154258032Y-97368875D02*
X154893032Y-98003875D01*
X154893032Y-98003875D02*
X155934451Y-98003875D01*
X147779648Y-96824800D02*
X150825200Y-96824800D01*
X156569451Y-105253749D02*
X156039244Y-105783956D01*
X156039244Y-105783956D02*
X156039244Y-107096710D01*
X151369275Y-97368875D02*
X154258032Y-97368875D01*
X147305600Y-96350752D02*
X147779648Y-96824800D01*
%TO.N,Net-(D1-K)*%
X165816951Y-87216054D02*
X163367305Y-89665700D01*
X165816951Y-85938875D02*
X165816951Y-87216054D01*
%TO.N,Net-(D2-K)*%
X130176951Y-107533875D02*
X132944451Y-107533875D01*
%TO.N,Net-(D2-A)*%
X146833251Y-102736275D02*
X140303734Y-102736275D01*
X133844451Y-109433875D02*
X135744451Y-107533875D01*
X147305600Y-102263926D02*
X146833251Y-102736275D01*
X147305600Y-101269600D02*
X147305600Y-102263926D01*
X127511851Y-109433875D02*
X133844451Y-109433875D01*
X135744451Y-107533875D02*
X138327251Y-107533875D01*
X120374451Y-104368875D02*
X123843851Y-104368875D01*
X139328419Y-106532707D02*
X139328419Y-105148113D01*
X126673651Y-107198675D02*
X126673651Y-108595675D01*
X123843851Y-104368875D02*
X126673651Y-107198675D01*
X140303734Y-102736275D02*
X139327972Y-103712037D01*
X126673651Y-108595675D02*
X127511851Y-109433875D01*
X138327251Y-107533875D02*
X139328419Y-106532707D01*
%TO.N,Net-(D3-K)*%
X130176951Y-104085301D02*
X132944451Y-104085301D01*
%TO.N,Net-(D3-A)*%
X147955600Y-102325126D02*
X147044451Y-103236275D01*
X137758877Y-104085301D02*
X135744451Y-104085301D01*
X135744451Y-104085301D02*
X133850277Y-105979475D01*
X123843851Y-101828875D02*
X120374451Y-101828875D01*
X127994451Y-105979475D02*
X123843851Y-101828875D01*
X138085613Y-104412037D02*
X137758877Y-104085301D01*
X147955600Y-101269600D02*
X147955600Y-102325126D01*
X133850277Y-105979475D02*
X127994451Y-105979475D01*
X141177051Y-103236275D02*
X140001289Y-104412037D01*
X147044451Y-103236275D02*
X141177051Y-103236275D01*
X140001289Y-104412037D02*
X138085613Y-104412037D01*
%TO.N,Net-(D4-K)*%
X130176951Y-100636730D02*
X132944451Y-100636730D01*
D35*
%TO.N,Net-(D4-A)*%
X137426596Y-100636730D02*
X138698526Y-99364800D01*
D34*
X120374451Y-99288875D02*
X123894651Y-99288875D01*
X127029251Y-102423475D02*
X133957706Y-102423475D01*
D35*
X145858396Y-99364800D02*
X146043396Y-99549800D01*
X148605600Y-99736000D02*
X148605600Y-101269600D01*
D34*
X133957706Y-102423475D02*
X135744451Y-100636730D01*
D35*
X148419400Y-99549800D02*
X148605600Y-99736000D01*
X138698526Y-99364800D02*
X145858396Y-99364800D01*
X146043396Y-99549800D02*
X148419400Y-99549800D01*
X135744451Y-100636730D02*
X137426596Y-100636730D01*
D34*
X123894651Y-99288875D02*
X127029251Y-102423475D01*
%TO.N,Net-(D5-K)*%
X130176951Y-97188159D02*
X132944451Y-97188159D01*
%TO.N,Net-(D5-A)*%
X133912735Y-99019875D02*
X135744451Y-97188159D01*
X123894651Y-96748875D02*
X126165651Y-99019875D01*
X126165651Y-99019875D02*
X133912735Y-99019875D01*
X120374451Y-96748875D02*
X123894651Y-96748875D01*
D35*
X135744451Y-97188159D02*
X135933735Y-96998875D01*
X148833000Y-99099800D02*
X149255600Y-99522400D01*
X144128867Y-96998875D02*
X146229792Y-99099800D01*
X149255600Y-99522400D02*
X149255600Y-101269600D01*
X146229792Y-99099800D02*
X148833000Y-99099800D01*
X135933735Y-96998875D02*
X144128867Y-96998875D01*
D34*
%TO.N,Net-(D6-K)*%
X130176951Y-93739588D02*
X132944451Y-93739588D01*
%TO.N,Net-(D6-A)*%
X133943964Y-95540075D02*
X135744451Y-93739588D01*
X120374451Y-94208875D02*
X123894651Y-94208875D01*
D35*
X142338613Y-96548875D02*
X144315263Y-96548875D01*
X146416188Y-98649800D02*
X149348200Y-98649800D01*
X149348200Y-98649800D02*
X149905600Y-99207200D01*
D34*
X125225851Y-95540075D02*
X133943964Y-95540075D01*
D35*
X149905600Y-99207200D02*
X149905600Y-101269600D01*
D34*
X123894651Y-94208875D02*
X125225851Y-95540075D01*
D35*
X139529326Y-93739588D02*
X142338613Y-96548875D01*
X144315263Y-96548875D02*
X146416188Y-98649800D01*
X135744451Y-93739588D02*
X139529326Y-93739588D01*
D34*
%TO.N,Net-(D7-K)*%
X130176951Y-90291017D02*
X132944451Y-90291017D01*
D35*
%TO.N,Net-(D7-A)*%
X137704451Y-91278316D02*
X142525010Y-96098875D01*
D34*
X124311451Y-92085675D02*
X133949793Y-92085675D01*
D35*
X150066600Y-98199800D02*
X150555600Y-98688800D01*
D34*
X120374451Y-91668875D02*
X123894651Y-91668875D01*
D35*
X150555600Y-98688800D02*
X150555600Y-101269600D01*
X146602584Y-98199800D02*
X150066600Y-98199800D01*
X135744451Y-90291017D02*
X137223393Y-90291017D01*
X137223393Y-90291017D02*
X137704451Y-90772075D01*
D34*
X123894651Y-91668875D02*
X124311451Y-92085675D01*
D35*
X137704451Y-90772075D02*
X137704451Y-91278316D01*
D34*
X133949793Y-92085675D02*
X135744451Y-90291017D01*
D35*
X142525010Y-96098875D02*
X144501659Y-96098875D01*
X144501659Y-96098875D02*
X146602584Y-98199800D01*
D34*
%TO.N,Net-(D8-K)*%
X130176951Y-86842446D02*
X132944451Y-86842446D01*
%TO.N,Net-(D8-A)*%
X134006422Y-88580475D02*
X135744451Y-86842446D01*
X120374451Y-89128875D02*
X123890051Y-89128875D01*
D35*
X138154451Y-91091920D02*
X142711406Y-95648875D01*
X142711406Y-95648875D02*
X144688055Y-95648875D01*
X144688055Y-95648875D02*
X146788980Y-97749800D01*
X137671851Y-86853275D02*
X138154451Y-87335875D01*
X150429400Y-97749800D02*
X151205600Y-98526000D01*
X146788980Y-97749800D02*
X150429400Y-97749800D01*
X138154451Y-87335875D02*
X138154451Y-91091920D01*
X151205600Y-98526000D02*
X151205600Y-101269600D01*
D34*
X123890051Y-89128875D02*
X124438451Y-88580475D01*
X124438451Y-88580475D02*
X134006422Y-88580475D01*
D35*
X136038422Y-86853275D02*
X137671851Y-86853275D01*
D34*
%TO.N,Net-(D9-K)*%
X130176951Y-83393875D02*
X132944451Y-83393875D01*
D35*
%TO.N,Net-(D9-A)*%
X151855600Y-98526952D02*
X151855600Y-101269600D01*
X146975376Y-97299800D02*
X150628448Y-97299800D01*
D34*
X134037651Y-85100675D02*
X135744451Y-83393875D01*
X123864651Y-86588875D02*
X125352851Y-85100675D01*
X125352851Y-85100675D02*
X134037651Y-85100675D01*
D35*
X144874451Y-95198875D02*
X146975376Y-97299800D01*
X138789451Y-91090524D02*
X142897802Y-95198875D01*
D34*
X138261051Y-83393875D02*
X135744451Y-83393875D01*
D35*
X138789451Y-83881475D02*
X138789451Y-91090524D01*
X150628448Y-97299800D02*
X151855600Y-98526952D01*
X138281451Y-83373475D02*
X138789451Y-83881475D01*
X142897802Y-95198875D02*
X144874451Y-95198875D01*
D34*
X120374451Y-86588875D02*
X123864651Y-86588875D01*
%TO.N,Net-(J1-CC1)*%
X171174451Y-99631375D02*
X171682472Y-99123354D01*
X171682472Y-99123354D02*
X176200518Y-99123354D01*
X176200518Y-99123354D02*
X176200518Y-96772442D01*
X176200518Y-96772442D02*
X175391951Y-95963875D01*
X175391951Y-95963875D02*
X174491951Y-95963875D01*
%TO.N,Net-(J1-CC2)*%
X176115346Y-94240480D02*
X175391951Y-94963875D01*
X175391951Y-94963875D02*
X174491951Y-94963875D01*
X176115346Y-91757928D02*
X176115346Y-94240480D01*
X171379793Y-91757928D02*
X176115346Y-91757928D01*
X171146345Y-91524480D02*
X171379793Y-91757928D01*
D33*
%TO.N,Net-(J1-SHIELD)*%
X174546951Y-100588875D02*
X178126951Y-100588875D01*
X177166951Y-89378875D02*
X178126951Y-90338875D01*
X177166951Y-87208875D02*
X177166951Y-89378875D01*
X178126951Y-100588875D02*
X178126951Y-90338875D01*
X174546951Y-90338875D02*
X178126951Y-90338875D01*
D34*
%TO.N,Net-(SW1-A)*%
X144076816Y-108921710D02*
X147001744Y-105996782D01*
X147001744Y-105996782D02*
X147001744Y-105259210D01*
X143339244Y-108921710D02*
X144076816Y-108921710D01*
%TO.N,Net-(SW1-B)*%
X151062889Y-103154837D02*
X153254323Y-103154837D01*
X154746803Y-104647317D02*
X154746803Y-108141434D01*
X149642301Y-104575425D02*
X151062889Y-103154837D01*
X149642301Y-105259210D02*
X149642301Y-104575425D01*
X154746803Y-108141434D02*
X155527079Y-108921710D01*
X153254323Y-103154837D02*
X154746803Y-104647317D01*
X155527079Y-108921710D02*
X156039244Y-108921710D01*
%TO.N,Net-(U2-B0)*%
X142840975Y-93693875D02*
X147358081Y-93693875D01*
X147358081Y-93693875D02*
X147955600Y-94291394D01*
X141579600Y-84455000D02*
X144397100Y-84455000D01*
X144397100Y-84455000D02*
X145112100Y-85170000D01*
X142279450Y-86652650D02*
X140944600Y-87987500D01*
X140944600Y-91797500D02*
X142840975Y-93693875D01*
X145112100Y-86652650D02*
X142279450Y-86652650D01*
X140944600Y-87987500D02*
X140944600Y-91797500D01*
X145112100Y-85170000D02*
X145112100Y-86652650D01*
X147955600Y-94291394D02*
X147955600Y-95529600D01*
%TO.N,Net-(U2-B1)*%
X148605600Y-94234287D02*
X148605600Y-95529600D01*
X146382100Y-86897650D02*
X145292250Y-87987500D01*
X147565188Y-93193875D02*
X148605600Y-94234287D01*
X143894851Y-92365075D02*
X144723651Y-93193875D01*
X142468600Y-88980000D02*
X143894851Y-90406251D01*
X146382100Y-86652650D02*
X146382100Y-86897650D01*
X143461100Y-87987500D02*
X142468600Y-88980000D01*
X145292250Y-87987500D02*
X143461100Y-87987500D01*
X143894851Y-90406251D02*
X143894851Y-92365075D01*
X144723651Y-93193875D02*
X147565188Y-93193875D01*
%TO.N,Net-(U2-B2)*%
X149255600Y-94177180D02*
X149255600Y-95529600D01*
X147652100Y-87871226D02*
X147552451Y-87970875D01*
X146561851Y-92390475D02*
X146865251Y-92693875D01*
X147552451Y-87970875D02*
X146257051Y-87970875D01*
X147652100Y-86652650D02*
X147652100Y-87871226D01*
X146561851Y-90279251D02*
X146561851Y-92390475D01*
X146865251Y-92693875D02*
X147772295Y-92693875D01*
X145262600Y-88980000D02*
X146561851Y-90279251D01*
X145262600Y-88965326D02*
X145262600Y-88980000D01*
X147772295Y-92693875D02*
X149255600Y-94177180D01*
X146257051Y-87970875D02*
X145262600Y-88965326D01*
%TO.N,Net-(U2-B3)*%
X148922100Y-86652650D02*
X148922100Y-88114500D01*
X149254251Y-90177651D02*
X149254251Y-93381075D01*
X149905600Y-94032424D02*
X149905600Y-95529600D01*
X148056600Y-88980000D02*
X149254251Y-90177651D01*
X148922100Y-88114500D02*
X148056600Y-88980000D01*
X149254251Y-93381075D02*
X149905600Y-94032424D01*
%TO.N,Net-(U2-B4)*%
X150555600Y-93975318D02*
X150555600Y-95529600D01*
X150850600Y-88779824D02*
X150850600Y-88980000D01*
X149754251Y-93173969D02*
X150555600Y-93975318D01*
X150192100Y-88121324D02*
X150850600Y-88779824D01*
X149754251Y-90188675D02*
X149754251Y-93173969D01*
X150850600Y-88980000D02*
X150850600Y-89092326D01*
X150850600Y-89092326D02*
X149754251Y-90188675D01*
X150192100Y-86652650D02*
X150192100Y-88121324D01*
%TO.N,Net-(U2-B5)*%
X152276851Y-90347749D02*
X152276851Y-93177950D01*
X153644600Y-88652824D02*
X153644600Y-88980000D01*
X151205600Y-94249201D02*
X151205600Y-95529600D01*
X152276851Y-93177950D02*
X151205600Y-94249201D01*
X153644600Y-88980000D02*
X152276851Y-90347749D01*
X151462100Y-86652650D02*
X151462100Y-87791124D01*
X152911851Y-87920075D02*
X153644600Y-88652824D01*
X151591051Y-87920075D02*
X152911851Y-87920075D01*
X151462100Y-87791124D02*
X151591051Y-87920075D01*
%TO.N,Net-(U2-B6)*%
X151855600Y-94306307D02*
X151855600Y-95529600D01*
X153255118Y-93385056D02*
X152776851Y-93385056D01*
X152732100Y-86897650D02*
X153821950Y-87987500D01*
X155070851Y-91569323D02*
X153255118Y-93385056D01*
X152776851Y-93385056D02*
X151855600Y-94306307D01*
X153821950Y-87987500D02*
X155446100Y-87987500D01*
X156438600Y-88980000D02*
X155070851Y-90347749D01*
X155070851Y-90347749D02*
X155070851Y-91569323D01*
X152732100Y-86652650D02*
X152732100Y-86897650D01*
X155446100Y-87987500D02*
X156438600Y-88980000D01*
%TO.N,Net-(U2-B7)*%
X154002100Y-86652650D02*
X154002100Y-85090000D01*
X152505600Y-95244048D02*
X154682148Y-93067500D01*
X158089600Y-87987500D02*
X156754750Y-86652650D01*
X154002100Y-85090000D02*
X154637100Y-84455000D01*
X152505600Y-95529600D02*
X152505600Y-95244048D01*
X156959226Y-93067500D02*
X158089600Y-91937126D01*
X158089600Y-91937126D02*
X158089600Y-87987500D01*
X154682148Y-93067500D02*
X156959226Y-93067500D01*
X154637100Y-84455000D02*
X157177100Y-84455000D01*
X156754750Y-86652650D02*
X154002100Y-86652650D01*
%TD*%
%TA.AperFunction,Conductor*%
%TO.N,GND*%
G36*
X175573871Y-85729960D02*
G01*
X175573886Y-85729969D01*
X176197506Y-86130867D01*
X176243252Y-86183676D01*
X176254451Y-86235172D01*
X176254451Y-88193760D01*
X176234766Y-88260799D01*
X176211796Y-88287349D01*
X175549134Y-88863315D01*
X175485623Y-88892437D01*
X175467452Y-88893726D01*
X173937604Y-88889564D01*
X173937603Y-88889564D01*
X173739851Y-88887420D01*
X173739850Y-88887420D01*
X173166541Y-89215475D01*
X173166835Y-89751530D01*
X173147187Y-89818580D01*
X173133960Y-89835695D01*
X172430476Y-90597972D01*
X172370544Y-90633887D01*
X172339351Y-90637875D01*
X167653805Y-90637875D01*
X167588412Y-90619230D01*
X166941389Y-90217629D01*
X166894810Y-90165550D01*
X166882793Y-90110607D01*
X166886721Y-89818580D01*
X166892451Y-89392474D01*
X166894472Y-88322530D01*
X166914283Y-88255531D01*
X166923703Y-88242799D01*
X167759095Y-87252902D01*
X167817376Y-87214364D01*
X167853860Y-87208875D01*
X171961850Y-87208875D01*
X171961851Y-87208875D01*
X172444451Y-86904075D01*
X172444451Y-86308574D01*
X172464136Y-86241535D01*
X172481783Y-86219891D01*
X172518841Y-86183676D01*
X172967112Y-85745592D01*
X173028817Y-85712814D01*
X173053781Y-85710275D01*
X175506832Y-85710275D01*
X175573871Y-85729960D01*
G37*
%TD.AperFunction*%
%TD*%
%TA.AperFunction,Conductor*%
%TO.N,VCC*%
G36*
X164941227Y-91597360D02*
G01*
X164985499Y-91647032D01*
X165637250Y-92974674D01*
X165637251Y-92974675D01*
X169224355Y-92974675D01*
X169291394Y-92994360D01*
X169304012Y-93003645D01*
X170952307Y-94385305D01*
X170991039Y-94443457D01*
X170996650Y-94480335D01*
X170996651Y-95528875D01*
X170976967Y-95595914D01*
X170947051Y-95628075D01*
X170521718Y-95947075D01*
X170456276Y-95971551D01*
X170447318Y-95971875D01*
X169173319Y-95971875D01*
X169106280Y-95952190D01*
X169080000Y-95929530D01*
X168583651Y-95362275D01*
X165611851Y-95362275D01*
X165611849Y-95362275D01*
X163461058Y-97037893D01*
X163396076Y-97063566D01*
X163384851Y-97064075D01*
X160240908Y-97064075D01*
X160173869Y-97044390D01*
X160169547Y-97041483D01*
X159568490Y-96618517D01*
X159524993Y-96563838D01*
X159515851Y-96517109D01*
X159515851Y-92081733D01*
X159535536Y-92014694D01*
X159578717Y-91973850D01*
X159886118Y-91799656D01*
X160249410Y-91593792D01*
X160310543Y-91577675D01*
X164874188Y-91577675D01*
X164941227Y-91597360D01*
G37*
%TD.AperFunction*%
%TD*%
M02*
